<?xml version="1.0" encoding="UTF-8"?>
<svg version="1.1" xmlns="http://www.w3.org/2000/svg" width="380" height="191">
<path d="M0 0 C125.4 0 250.8 0 380 0 C380 63.03 380 126.06 380 191 C254.6 191 129.2 191 0 191 C0 127.97 0 64.94 0 0 Z " fill="#F6F6F6" transform="translate(0,0)"/>
<path d="M0 0 C4.26310589 0.05615507 6.30953546 0.12568045 10.0625 2.25 C12.4395307 6.65190871 12.17797259 10.47709147 11.75 15.375 C12.74 15.705 13.73 16.035 14.75 16.375 C14.75 17.035 14.75 17.695 14.75 18.375 C15.41 18.375 16.07 18.375 16.75 18.375 C19.16987125 22.69759259 19.71632408 26.50243366 18.75 31.375 C16.70808689 34.75104652 14.30609629 37.59695185 10.75 39.375 C7.86629667 39.44694869 5.00760336 39.46791708 2.125 39.4375 C0.92230469 39.43073242 0.92230469 39.43073242 -0.3046875 39.42382812 C-2.28649006 39.41203168 -4.26825433 39.39409605 -6.25 39.375 C-7.83157077 36.21185847 -7.3918935 32.81210457 -7.3828125 29.33984375 C-7.38376923 28.5459877 -7.38472595 27.75213165 -7.38571167 26.93421936 C-7.38639251 25.25554322 -7.3845449 23.57686445 -7.38037109 21.89819336 C-7.37501441 19.31943903 -7.38032292 16.74085832 -7.38671875 14.16210938 C-7.38605809 12.53385378 -7.38477718 10.90559829 -7.3828125 9.27734375 C-7.38483673 8.50132309 -7.38686096 7.72530243 -7.38894653 6.92576599 C-7.35889616 0.11695704 -6.70019428 0.19529714 0 0 Z " fill="#2C2C2C" transform="translate(63.25,138.625)"/>
<path d="M0 0 C0.99 0.33 1.98 0.66 3 1 C3.1455841 5.54132797 3.23417333 10.08205341 3.3125 14.625 C3.35439453 15.91019531 3.39628906 17.19539063 3.43945312 18.51953125 C3.57758229 29.1831029 3.57758229 29.1831029 0.59765625 32.8125 C-2.99767577 35.84014802 -4.6731625 36.85257361 -9.375 37.375 C-13.69296607 36.92831385 -15.69326548 35.7684289 -19 33 C-20.4375 30.875 -20.4375 30.875 -21 29 C-20.67 28.34 -20.34 27.68 -20 27 C-19.01 27 -18.02 27 -17 27 C-16.4225 27.66 -15.845 28.32 -15.25 29 C-13.05433548 31.35213745 -13.05433548 31.35213745 -9.4375 31.3125 C-6.02087598 31.13420273 -6.02087598 31.13420273 -3 30 C-2.67 28.02 -2.34 26.04 -2 24 C-2.99 24.66 -3.98 25.32 -5 26 C-8.74817897 26.67824191 -12.45038729 26.84999853 -15.8515625 24.984375 C-18.86088818 22.5235471 -21.6882702 19.9030017 -22.3359375 15.94921875 C-22.4306241 10.46686452 -21.75984978 7.28205114 -18 3 C-15.09465673 1.21162694 -12.89434389 0.72675107 -9.5 0.75 C-8.7471875 0.74484375 -7.994375 0.7396875 -7.21875 0.734375 C-4.7703279 1.02749596 -3.12695946 1.78183231 -1 3 C-0.67 2.01 -0.34 1.02 0 0 Z " fill="#313131" transform="translate(151,152)"/>
<path d="M0 0 C3 1 3 1 4.73339844 4.26293945 C5.37064576 5.70785408 5.99512584 7.15844092 6.609375 8.61328125 C6.9404425 9.37924118 7.27151001 10.14520111 7.61260986 10.93437195 C8.31042426 12.55705767 9.00272556 14.18212358 9.68994141 15.80932617 C10.74425902 18.29894351 11.82191712 20.77747991 12.90234375 23.25585938 C13.57695534 24.8327204 14.25017902 26.41017606 14.921875 27.98828125 C15.24573181 28.73008133 15.56958862 29.47188141 15.90325928 30.23616028 C17.45724439 33.96309205 18.25250985 36.14714194 17 40 C16.01 40 15.02 40 14 40 C12.68 37.03 11.36 34.06 10 31 C3.73 30.67 -2.54 30.34 -9 30 C-9.99 32.97 -10.98 35.94 -12 39 C-13.98 39.495 -13.98 39.495 -16 40 C-15.50288076 33.12805753 -12.88382766 27.34621639 -10.1875 21.0625 C-9.74857422 20.01642578 -9.30964844 18.97035156 -8.85742188 17.89257812 C-2.23360907 2.23360907 -2.23360907 2.23360907 0 0 Z " fill="#3F3F3F" transform="translate(290,138)"/>
<path d="M0 0 C3.89487975 1.97910557 6.38991021 4.96354235 8 9 C8.33403245 13.78779839 7.66898085 17.15021351 4.6875 20.9375 C0.3140594 24.29386139 -2.32324398 25.47576922 -8.0390625 25.31640625 C-12.19579686 24.64569812 -14.29611644 21.87378649 -16.8125 18.75 C-18.39725493 15.08004122 -18.9305347 11.87600674 -18 8 C-13.37542273 0.63178973 -8.54631416 -1.17970594 0 0 Z " fill="#323232" transform="translate(117,153)"/>
<path d="M0 0 C2.5 2.125 2.5 2.125 4 5 C4.125 8.5625 4.125 8.5625 3 12 C0.36981792 14.16259416 -2.10432425 15.59054823 -5.1875 17 C-7.57010969 18.31454328 -8.55334248 19.6981361 -10 22 C-10.4247498 24.44906683 -10.4247498 24.44906683 -10.4375 27 C-10.69457931 30.28867496 -10.85929053 31.77270008 -12.625 34.625 C-15.95627342 36.55363198 -18.21357869 36.47330266 -22 36 C-24.375 34.9375 -24.375 34.9375 -26 33 C-27 29.625 -27 29.625 -27 26 C-24.59570299 21.60954458 -20.9417736 19.52527736 -16.70703125 17.11328125 C-14.83974281 16.10022171 -14.83974281 16.10022171 -14 14 C-13.87307441 12.56433053 -13.77213424 11.12628212 -13.6875 9.6875 C-13.25769597 5.38252742 -12.17369898 3.07752629 -9 0 C-5.77839187 -1.61080407 -3.42436421 -0.82657067 0 0 Z " fill="#F3F3F3" transform="translate(182,79)"/>
<path d="M0 0 C4.65517241 0.67887931 4.65517241 0.67887931 7 2.4375 C8.75446563 5.44515536 9.02363245 7.13618626 8.75 10.625 C8 13.4375 8 13.4375 6 15.4375 C5.6425553 17.73755663 5.6425553 17.73755663 5.6875 20.3125 C5.67074219 21.17617188 5.65398437 22.03984375 5.63671875 22.9296875 C6.06703969 25.9002901 7.17865103 27.10655081 9 29.4375 C9.85559135 33.38401147 9.57891209 36.51124066 7.4375 39.9375 C4.0761612 42.00601618 1.88040089 41.92255011 -2 41.4375 C-4.375 40.375 -4.375 40.375 -6 38.4375 C-6.9375 35 -6.9375 35 -7 31.4375 C-6.51402344 30.81746094 -6.02804688 30.19742188 -5.52734375 29.55859375 C-3.58810008 26.8654753 -3.59790039 25.22558661 -3.625 21.9375 C-3.61726562 20.9990625 -3.60953125 20.060625 -3.6015625 19.09375 C-4.06011889 16.03670739 -5.09408083 14.80876048 -7 12.4375 C-7.52416181 8.31908581 -7.39470801 6.15101063 -5.375 2.5 C-3 0.4375 -3 0.4375 0 0 Z " fill="#F3F3F3" transform="translate(185,21.5625)"/>
<path d="M0 0 C4.42720439 0.86962943 5.96514795 1.96443605 8.5 5.6875 C8.56855861 9.5953408 8.19941839 11.75986763 5.8359375 14.89453125 C2.73096079 17.2777826 0.92446056 17.03573471 -2.9375 16.8125 C-7.37645192 16.57589306 -10.53015947 16.56425777 -14.5 18.6875 C-15.304375 19.698125 -16.10875 20.70875 -16.9375 21.75 C-19.5 24.6875 -19.5 24.6875 -22.5 25.75 C-26.0685736 25.67565472 -27.69658997 24.85013059 -30.5 22.6875 C-32.04586876 19.59576248 -31.79359521 17.09320448 -31.5 13.6875 C-29.87890625 11.46484375 -29.87890625 11.46484375 -27.5 9.6875 C-24.4765625 9.40234375 -24.4765625 9.40234375 -21.125 9.625 C-16.05329464 9.76682621 -12.70099589 9.83824692 -8.5 6.6875 C-7.66997865 5.63863058 -6.85810441 4.5752098 -6.0625 3.5 C-3.5 0.6875 -3.5 0.6875 0 0 Z " fill="#F2F2F2" transform="translate(226.5,49.3125)"/>
<path d="M0 0 C1.9375 1.5 1.9375 1.5 3 4 C3.12375 5.27875 3.2475 6.5575 3.375 7.875 C3.82241589 12.49542946 5.57920362 14.80229904 9 18 C11.31648799 19.03842565 13.64903024 20.0421975 16 21 C18 22.75 18 22.75 19 25 C18.88081199 28.39685818 18.58128695 30.94000615 16.9375 33.9375 C13.73303422 35.69478769 10.50518111 35.61482007 7 35 C4.5625 33.5 4.5625 33.5 3 31 C2.7754673 29.01128176 2.55384415 27.02170688 2.38671875 25.02734375 C1.68956006 21.37254212 -0.35053516 19.47667366 -3 17 C-5.31648799 15.96157435 -7.64903024 14.9578025 -10 14 C-12 12.25 -12 12.25 -13 10 C-12.93541482 6.31864501 -12.78095253 3.96838114 -10.4375 1.0625 C-6.68305284 -0.57405389 -4.09541924 -0.45504658 0 0 Z " fill="#F2F2F2" transform="translate(202,78)"/>
<path d="M0 0 C3.684548 1.30494408 5.36536605 3.21986863 8 6.0625 C12.22022074 9.06265693 17.25288127 8.07157824 22.15625 7.72070312 C26.00484897 7.5806888 27.60979696 7.70638647 30.50390625 10.34765625 C32.53474453 14.03285887 32.11001256 16.06645478 31 20.0625 C29.9375 22 29.9375 22 28 23.0625 C24.91125705 23.46104748 22.95626558 23.70012591 20 23.0625 C17.25 20.6875 17.25 20.6875 15 18.0625 C10.40788809 14.8544592 4.86018906 16.07011048 -0.46875 16.28515625 C-4.16845358 16.05187848 -5.56467145 15.81970489 -8 13.0625 C-8.81919926 9.99474002 -8.64192923 7.16050631 -8 4.0625 C-5.41337195 0.86725358 -4.10950622 0.08561471 0 0 Z " fill="#F2F2F2" transform="translate(147,51.9375)"/>
<path d="M0 0 C1.40765625 0.00580078 1.40765625 0.00580078 2.84375 0.01171875 C5.56688832 0.32007412 7.19968726 0.8519032 9.5 2.3125 C12.68810909 6.4114974 12.5 7.71377542 12.5 13.3125 C5.9 13.3125 -0.7 13.3125 -7.5 13.3125 C-6.16436384 18.25713635 -6.16436384 18.25713635 -3.5 19.3125 C1.03113746 19.46106188 5.07882704 19.41779324 9.5 18.3125 C9.25 20.6875 9.25 20.6875 8.5 23.3125 C4.40346074 25.93825534 0.21442354 26.12138723 -4.5 25.3125 C-7.63202088 23.65047623 -9.7335182 21.32286237 -11.875 18.5 C-13.19757596 13.87098413 -13.17987371 9.84221585 -11.25 5.5 C-7.88204614 1.29005768 -5.43259565 -0.09701064 0 0 Z " fill="#373737" transform="translate(220.5,152.6875)"/>
<path d="M0 0 C3.21720568 1.84818199 4.59785045 3.26881899 6.375 6.5 C7.03571099 9.14284397 6.93513592 10.47513301 6 13 C5.01 13 4.02 13 3 13 C2.649375 11.865625 2.29875 10.73125 1.9375 9.5625 C1.18904493 7.61991389 1.18904493 7.61991389 0 6 C-3.44336774 4.67451168 -3.44336774 4.67451168 -7 5 C-9.14780077 5.89757556 -9.14780077 5.89757556 -10 8 C-10.48243075 11.03189266 -10.48243075 11.03189266 -9 14 C-6.15395911 15.76947009 -3.13252648 16.84175492 0 18 C3.80340117 19.68737655 5.24330504 21.13527109 7 25 C7.59866575 29.01961286 7.18471519 30.66878655 5.1875 34.25 C3 37 3 37 0 39 C-4.99901603 39.46287185 -8.00873265 39.10431905 -12 36 C-14.54507124 33.45492876 -14.97684199 32.40140544 -15.1875 28.75 C-15.0946875 27.38875 -15.0946875 27.38875 -15 26 C-13.1875 26.125 -13.1875 26.125 -11 27 C-9.25 30.0625 -9.25 30.0625 -8 33 C-4.58343976 33.16677282 -4.58343976 33.16677282 -1 33 C1.34973818 31.10244856 1.34973818 31.10244856 1.125 27.875 C1.08375 26.92625 1.0425 25.9775 1 25 C0.40832031 24.74605469 -0.18335938 24.49210937 -0.79296875 24.23046875 C-12.14176245 19.28735632 -12.14176245 19.28735632 -15 15 C-15.75765614 11.17529352 -15.83928568 7.57007056 -13.97265625 4.078125 C-10.05476777 -0.48008321 -5.77338868 -1.24628501 0 0 Z " fill="#383838" transform="translate(177,139)"/>
<path d="M0 0 C1.94050855 1.94050855 2.81636221 3.46540998 3.703125 6.046875 C4.89079658 8.27649156 4.89079658 8.27649156 7.71484375 8.87109375 C9.86031214 9.24817607 12.00614649 9.6231822 14.15234375 9.99609375 C17 11 17 11 18.88671875 13.43359375 C20.23159175 16.53387993 20.15953029 17.8527035 19 21 C17.8125 22.8125 17.8125 22.8125 16 24 C13.0625 24.4375 13.0625 24.4375 10 24 C7.44823362 22.03149451 6.08359841 20.14044532 4.4375 17.375 C3.07382261 14.74256396 3.07382261 14.74256396 0 13 C-1.9512833 12.65762865 -1.9512833 12.65762865 -4 12.5625 C-6.43756924 12.28916963 -7.84317373 12.08821478 -10 10.875 C-11.63486492 7.80962827 -11.42383837 5.39070692 -11 2 C-7.89207752 -1.97814077 -4.55239669 -1.24156273 0 0 Z " fill="#F0F0F0" transform="translate(208,24)"/>
<path d="M0 0 C3 0.5625 3 0.5625 5.375 2.1875 C7.46379841 5.24035921 7.54068562 6.93218224 7 10.5625 C5.625 12.4375 5.625 12.4375 4 13.5625 C3.34 13.5625 2.68 13.5625 2 13.5625 C1.47238488 18.24508419 0.97520506 22.78145952 1.125 27.5 C1 30.5625 1 30.5625 -0.0625 32.5 C-3.11976176 34.1765629 -5.5906288 33.92778977 -9 33.5625 C-10.9375 32.5 -10.9375 32.5 -12 30.5625 C-12.5 27.125 -12.5 27.125 -12 23.5625 C-11.195625 22.923125 -10.39125 22.28375 -9.5625 21.625 C-6.60497652 19.68213426 -6.60497652 19.68213426 -6.125 15.6875 C-5.91678047 12.95017492 -6.09708676 11.1123705 -6.6875 8.375 C-7 5.5625 -7 5.5625 -5.4375 2.6875 C-3 0.5625 -3 0.5625 0 0 Z " fill="#BABABA" transform="translate(232,67.4375)"/>
<path d="M0 0 C3.5625 0.3125 3.5625 0.3125 5.5 1.4375 C7.09240283 4.24762264 7.01569325 6.14014724 6.5625 9.3125 C5 11.625 5 11.625 2.5625 13.3125 C0.23534 13.68650786 -2.09867862 14.02014733 -4.4375 14.3125 C-8.79760372 16.49255186 -9.62296455 19.97339348 -11.4375 24.3125 C-14.4375 26.3125 -14.4375 26.3125 -17.4375 26.125 C-21.80537565 24.94203368 -21.80537565 24.94203368 -23.4375 22.3125 C-23.96390336 18.77807746 -23.89572707 17.01893339 -21.9375 14 C-19.37187905 12.26820586 -18.34871113 12.03477528 -15.375 11.75 C-11.63087002 11.6344737 -11.63087002 11.6344737 -9.625 10.125 C-7.9925981 7.6334392 -6.74570442 4.98578729 -5.4375 2.3125 C-3.4375 0.3125 -3.4375 0.3125 0 0 Z " fill="#B8B8B8" transform="translate(168.4375,23.6875)"/>
<path d="M0 0 C3.375 0.875 3.375 0.875 5.375 3.875 C5.83943597 7.5130818 5.80343764 9.23234354 3.75 12.3125 C1.375 13.875 1.375 13.875 -1.6875 13.75 C-4.625 12.875 -4.625 12.875 -7.625 10.875 C-12.44391378 10.34146502 -12.44391378 10.34146502 -16.625 12.375 C-19.63134789 14.62976092 -21.98107873 14.27251868 -25.625 13.875 C-27.5625 12.8125 -27.5625 12.8125 -28.625 10.875 C-28.99028977 7.4656288 -29.2390629 4.99476176 -27.5625 1.9375 C-24.53862524 0.2792461 -22.00113017 0.57355981 -18.625 0.875 C-17.635 1.535 -16.645 2.195 -15.625 2.875 C-10.20708384 3.50346274 -10.20708384 3.50346274 -5.5625 1.3125 C-3.625 -0.125 -3.625 -0.125 0 0 Z " fill="#ECECEC" transform="translate(199.625,109.125)"/>
<path d="M0 0 C3.375 0.875 3.375 0.875 5.375 2.875 C5.51641995 5.61943087 5.36981507 8.30626722 5.25 11.05078125 C5.38622155 14.12853692 5.96921501 16.14362581 7.375 18.875 C8.24125 19.49375 9.1075 20.1125 10 20.75 C12.375 22.875 12.375 22.875 12.875 26.4375 C12.375 29.875 12.375 29.875 11.25 31.8125 C8.43987736 33.40490283 6.54735276 33.32819325 3.375 32.875 C1 31.5 1 31.5 -0.625 28.875 C-0.81456163 26.32022624 -0.74629888 23.83668141 -0.65234375 21.27734375 C-0.61833486 18.2894196 -1.05093214 16.42349082 -2.625 13.875 C-3.49125 13.235625 -4.3575 12.59625 -5.25 11.9375 C-7.625 9.875 -7.625 9.875 -8.1875 6.875 C-7.625 3.875 -7.625 3.875 -6.0625 1.4375 C-3.625 -0.125 -3.625 -0.125 0 0 Z " fill="#B8B8B8" transform="translate(142.625,70.125)"/>
<path d="M0 0 C11.13163197 -0.29684352 11.13163197 -0.29684352 15 2 C17 5 17 5 16.875 8.4375 C15.93034068 12.28361296 15.05957584 13.5894251 12 16 C9.47524538 17.26237731 7.68799534 17.09856404 4.875 17.0625 C3.26625 17.041875 1.6575 17.02125 0 17 C0 11.39 0 5.78 0 0 Z " fill="#EEEEEE" transform="translate(61,157)"/>
<path d="M0 0 C0.99 0 1.98 0 3 0 C4.4783226 2.95664519 4.06032783 5.74229737 4 9 C4.804375 9.12375 5.60875 9.2475 6.4375 9.375 C7.283125 9.58125 8.12875 9.7875 9 10 C9.33 10.66 9.66 11.32 10 12 C9.67 12.66 9.34 13.32 9 14 C7.35 14 5.7 14 4 14 C4 20.6 4 27.2 4 34 C2.02 34.495 2.02 34.495 0 35 C-1 34 -1 34 -1.11352539 32.05053711 C-1.10567017 30.8015564 -1.10567017 30.8015564 -1.09765625 29.52734375 C-1.09443359 28.62822266 -1.09121094 27.72910156 -1.08789062 26.80273438 C-1.07951172 25.85720703 -1.07113281 24.91167969 -1.0625 23.9375 C-1.05798828 22.98810547 -1.05347656 22.03871094 -1.04882812 21.06054688 C-1.0370011 18.70696935 -1.02052025 16.35351523 -1 14 C-2.65 14 -4.3 14 -6 14 C-6.5625 12.0625 -6.5625 12.0625 -7 10 C-6 9 -6 9 -3.4375 8.9375 C-2.633125 8.958125 -1.82875 8.97875 -1 9 C-1.020625 7.700625 -1.04125 6.40125 -1.0625 5.0625 C-1.08399454 3.70834367 -1.07148199 2.35243917 -1 1 C-0.67 0.67 -0.34 0.34 0 0 Z " fill="#434343" transform="translate(195,143)"/>
<path d="M0 0 C3.00342896 2.05497771 3.83287356 3.47633714 4.9375 6.9375 C5.01221891 10.59872681 4.21363944 12.1304674 2 15 C-1.01868434 16.50934217 -3.67297229 16.17510672 -7 16 C-7.99 15.34 -8.98 14.68 -10 14 C-10 13.34 -10 12.68 -10 12 C-10.66 12 -11.32 12 -12 12 C-12.4206933 7.70892835 -12.45543836 5.64865463 -9.9375 2.0625 C-6.25937488 -0.52001338 -4.40768137 -0.72125695 0 0 Z " fill="#EFEFEF" transform="translate(145,157)"/>
<path d="M0 0 C2.9375 2.0625 2.9375 2.0625 5 5 C5.62491523 8.95779649 5.61006839 11.00863886 3.5 14.4375 C-0.02558884 16.64099302 -2.95014472 16.79669284 -7 16 C-9.5 14.5 -9.5 14.5 -11 12 C-11.79669284 7.95014472 -11.64099302 5.02558884 -9.4375 1.5 C-6.00863886 -0.61006839 -3.95779649 -0.62491523 0 0 Z " fill="#F2F2F2" transform="translate(115,157)"/>
<path d="M0 0 C1.98 0.495 1.98 0.495 4 1 C4 13.21 4 25.42 4 38 C2.02 38.495 2.02 38.495 0 39 C-1.81565436 37.18434564 -1.12861899 34.68730038 -1.13894653 32.27111816 C-1.1369223 31.47008667 -1.13489807 30.66905518 -1.1328125 29.84375 C-1.13376923 29.02628296 -1.13472595 28.20881592 -1.13571167 27.36657715 C-1.13639345 25.63484622 -1.13453929 23.90311276 -1.13037109 22.17138672 C-1.12502279 19.51133518 -1.13031612 16.8514525 -1.13671875 14.19140625 C-1.13605797 12.51302046 -1.1347768 10.83463477 -1.1328125 9.15625 C-1.13483673 8.35521851 -1.13686096 7.55418701 -1.13894653 6.72888184 C-1.11495079 1.11495079 -1.11495079 1.11495079 0 0 Z " fill="#3E3E3E" transform="translate(89,139)"/>
<path d="M0 0 C0.99 0 1.98 0 3 0 C4.55043334 3.10086669 4.1420075 6.37900766 4.1328125 9.78125 C4.13376923 10.55053833 4.13472595 11.31982666 4.13571167 12.11242676 C4.13639254 13.73982831 4.13454473 15.36723257 4.13037109 16.99462891 C4.1250215 19.48997073 4.13031919 21.98513255 4.13671875 24.48046875 C4.13605795 26.05989623 4.13477675 27.6393236 4.1328125 29.21875 C4.13483673 29.9677356 4.13686096 30.71672119 4.13894653 31.48840332 C4.11496122 36.77007757 4.11496122 36.77007757 3 39 C1.68 38.67 0.36 38.34 -1 38 C-1.02464928 32.74894558 -1.04283568 27.49792455 -1.05493164 22.24682617 C-1.05997218 20.45905979 -1.06680454 18.67129755 -1.07543945 16.88354492 C-1.0875173 14.31948832 -1.09323094 11.75548603 -1.09765625 9.19140625 C-1.10281754 8.3872377 -1.10797882 7.58306915 -1.11329651 6.75453186 C-1.11349215 4.83598285 -1.06201983 2.91754632 -1 1 C-0.67 0.67 -0.34 0.34 0 0 Z " fill="#474747" transform="translate(314,139)"/>
<path d="M0 0 C2.5 2.125 2.5 2.125 4 5 C4.125 8.5625 4.125 8.5625 3 12 C0.36981792 14.16259416 -2.10432425 15.59054823 -5.1875 17 C-7.57010969 18.31454328 -8.55334248 19.6981361 -10 22 C-10.4247498 24.44906683 -10.4247498 24.44906683 -10.4375 27 C-10.69457931 30.28867496 -10.85929053 31.77270008 -12.625 34.625 C-15.95627342 36.55363198 -18.21357869 36.47330266 -22 36 C-24.375 34.9375 -24.375 34.9375 -26 33 C-27 29.625 -27 29.625 -27 26 C-24.59570299 21.60954458 -20.9417736 19.52527736 -16.70703125 17.11328125 C-14.83974281 16.10022171 -14.83974281 16.10022171 -14 14 C-13.87307441 12.56433053 -13.77213424 11.12628212 -13.6875 9.6875 C-13.25769597 5.38252742 -12.17369898 3.07752629 -9 0 C-5.77839187 -1.61080407 -3.42436421 -0.82657067 0 0 Z M-9.875 2.4375 C-10.9993578 4.99853722 -11.18938659 6.62328118 -11.375 9.375 C-11.8038197 14.48720345 -13.25544084 16.50507812 -17 20 C-20.1875 21.75 -20.1875 21.75 -23 23 C-25.29827312 24.87938172 -25.29827312 24.87938172 -25.3125 27.9375 C-25.21648621 30.91095098 -25.21648621 30.91095098 -23.9375 32.875 C-20.85928089 34.66235303 -18.47093932 34.43386742 -15 34 C-12.297554 31.20217355 -11.58292088 28.85747923 -11.0625 25.0625 C-10.26542625 20.69145042 -9.41740125 18.04795246 -6 15 C-3.70933938 13.85466969 -1.38530215 12.94511972 1 12 C2.39935013 9.20129973 2.25265405 7.09501208 2 4 C1.06402685 1.98048938 1.06402685 1.98048938 -1 1 C-5.75671946 0.36326045 -5.75671946 0.36326045 -9.875 2.4375 Z " fill="#5C5C5C" transform="translate(182,79)"/>
<path d="M0 0 C4.65517241 0.67887931 4.65517241 0.67887931 7 2.4375 C8.75446563 5.44515536 9.02363245 7.13618626 8.75 10.625 C8 13.4375 8 13.4375 6 15.4375 C5.6425553 17.73755663 5.6425553 17.73755663 5.6875 20.3125 C5.67074219 21.17617188 5.65398437 22.03984375 5.63671875 22.9296875 C6.06703969 25.9002901 7.17865103 27.10655081 9 29.4375 C9.85559135 33.38401147 9.57891209 36.51124066 7.4375 39.9375 C4.0761612 42.00601618 1.88040089 41.92255011 -2 41.4375 C-4.375 40.375 -4.375 40.375 -6 38.4375 C-6.9375 35 -6.9375 35 -7 31.4375 C-6.51402344 30.81746094 -6.02804688 30.19742188 -5.52734375 29.55859375 C-3.58810008 26.8654753 -3.59790039 25.22558661 -3.625 21.9375 C-3.61726562 20.9990625 -3.60953125 20.060625 -3.6015625 19.09375 C-4.06011889 16.03670739 -5.09408083 14.80876048 -7 12.4375 C-7.52416181 8.31908581 -7.39470801 6.15101063 -5.375 2.5 C-3 0.4375 -3 0.4375 0 0 Z M-4.9375 3.5625 C-6.53773673 6.38644718 -6.44734094 8.24220761 -6 11.4375 C-5.34 12.18 -4.68 12.9225 -4 13.6875 C-1.05050185 17.74305996 -1.28963175 21.569863 -2 26.4375 C-2.97691857 28.11779994 -3.97388051 29.78678604 -5 31.4375 C-5.0127038 35.10114808 -5.0127038 35.10114808 -4 38.4375 C-1.10538099 40.79889302 -1.10538099 40.79889302 2.5625 40.25 C6.25825752 39.78910238 6.25825752 39.78910238 8 36.4375 C8.50042146 33.52211971 8.50042146 33.52211971 8 30.4375 C7.34 29.695 6.68 28.9525 6 28.1875 C3.4012608 24.6142336 3.55976529 22.14982574 3.56640625 17.83984375 C4.07975825 14.99559617 5.22360668 13.67306549 7 11.4375 C7.38420899 8.29979327 7.51108304 6.33941125 5.9375 3.5625 C2.43554208 1.52910508 -1.43554208 1.52910508 -4.9375 3.5625 Z " fill="#5C5C5C" transform="translate(185,21.5625)"/>
<path d="M0 0 C4.42720439 0.86962943 5.96514795 1.96443605 8.5 5.6875 C8.56855861 9.5953408 8.19941839 11.75986763 5.8359375 14.89453125 C2.73096079 17.2777826 0.92446056 17.03573471 -2.9375 16.8125 C-7.37645192 16.57589306 -10.53015947 16.56425777 -14.5 18.6875 C-15.304375 19.698125 -16.10875 20.70875 -16.9375 21.75 C-19.5 24.6875 -19.5 24.6875 -22.5 25.75 C-26.0685736 25.67565472 -27.69658997 24.85013059 -30.5 22.6875 C-32.04586876 19.59576248 -31.79359521 17.09320448 -31.5 13.6875 C-29.87890625 11.46484375 -29.87890625 11.46484375 -27.5 9.6875 C-24.4765625 9.40234375 -24.4765625 9.40234375 -21.125 9.625 C-16.05329464 9.76682621 -12.70099589 9.83824692 -8.5 6.6875 C-7.66997865 5.63863058 -6.85810441 4.5752098 -6.0625 3.5 C-3.5 0.6875 -3.5 0.6875 0 0 Z M-6.5 5.6875 C-7.5828125 6.7703125 -7.5828125 6.7703125 -8.6875 7.875 C-10.5 9.6875 -10.5 9.6875 -12.5 10.6875 C-16.04362936 10.63865298 -19.57686142 10.49093941 -23.1171875 10.33203125 C-26.55081252 10.40248462 -26.55081252 10.40248462 -28.94921875 12.5078125 C-30.80505617 14.65773201 -30.80505617 14.65773201 -30.4375 17.75 C-29.31420437 21.39046531 -29.31420437 21.39046531 -26.5 23.6875 C-23.63023717 24.52233326 -23.63023717 24.52233326 -20.5 23.6875 C-18.82553351 22.02601387 -17.43573813 20.23093686 -15.9765625 18.37890625 C-13.68166195 15.7500916 -11.93438307 15.25989718 -8.5 14.6875 C-5.39374467 14.6875 -2.30935737 14.75016207 0.79296875 14.91015625 C3.50784449 14.92132442 3.50784449 14.92132442 5.33203125 13.3671875 C7.19442482 10.68882886 7.0166309 8.85186424 6.5 5.6875 C4.29511741 3.22333866 4.29511741 3.22333866 1.5 1.6875 C-2.4787776 1.6875 -3.55218963 3.0991787 -6.5 5.6875 Z " fill="#5C5C5C" transform="translate(226.5,49.3125)"/>
<path d="M0 0 C3.33928041 0.03722128 4.41729263 0.12796814 7.25 2.0625 C8.6875 4.3125 8.6875 4.3125 8.6875 8.3125 C6.6160876 7.7946469 4.55329924 7.27415693 2.5 6.6875 C1.901875 6.56375 1.30375 6.44 0.6875 6.3125 C-0.82671001 7.82671001 -0.52559856 9.23722768 -0.62890625 11.34765625 C-0.67080078 12.15654297 -0.71269531 12.96542969 -0.75585938 13.79882812 C-0.79517578 14.64896484 -0.83449219 15.49910156 -0.875 16.375 C-0.91818359 17.22900391 -0.96136719 18.08300781 -1.00585938 18.96289062 C-1.11226702 21.07922037 -1.21291731 23.19583813 -1.3125 25.3125 C-2.6325 25.6425 -3.9525 25.9725 -5.3125 26.3125 C-5.34136751 22.16668113 -5.35925327 18.02088784 -5.375 13.875 C-5.38337891 12.69099609 -5.39175781 11.50699219 -5.40039062 10.28710938 C-5.40361328 9.16240234 -5.40683594 8.03769531 -5.41015625 6.87890625 C-5.41539307 5.83677979 -5.42062988 4.79465332 -5.42602539 3.72094727 C-5.23597581 -0.31096489 -3.63921716 0.11316715 0 0 Z " fill="#383838" transform="translate(245.3125,151.6875)"/>
<path d="M0 0 C1.9375 1.5 1.9375 1.5 3 4 C3.12375 5.27875 3.2475 6.5575 3.375 7.875 C3.82241589 12.49542946 5.57920362 14.80229904 9 18 C11.31648799 19.03842565 13.64903024 20.0421975 16 21 C18 22.75 18 22.75 19 25 C18.88081199 28.39685818 18.58128695 30.94000615 16.9375 33.9375 C13.73303422 35.69478769 10.50518111 35.61482007 7 35 C4.5625 33.5 4.5625 33.5 3 31 C2.7754673 29.01128176 2.55384415 27.02170688 2.38671875 25.02734375 C1.68956006 21.37254212 -0.35053516 19.47667366 -3 17 C-5.31648799 15.96157435 -7.64903024 14.9578025 -10 14 C-12 12.25 -12 12.25 -13 10 C-12.93541482 6.31864501 -12.78095253 3.96838114 -10.4375 1.0625 C-6.68305284 -0.57405389 -4.09541924 -0.45504658 0 0 Z M-11 5 C-11.44117834 8.08824835 -11.56502118 10.01121293 -10 12.75 C-7.39418135 14.37863665 -4.85427048 14.78897294 -1.83984375 15.27734375 C0 16 0 16 1.19140625 17.75390625 C2.06406587 20.17796076 2.49458483 22.45354745 2.875 25 C3.48400946 28.17621856 3.93231664 29.89847495 5.75 32.625 C8.73668088 34.45019387 10.55957166 34.51240422 14 34 C16.01951062 33.06402685 16.01951062 33.06402685 17 31 C17.51835311 26.40445349 17.51835311 26.40445349 15.9375 22.1875 C13.86665787 20.77948667 13.86665787 20.77948667 10.5625 20.1875 C7 19 7 19 4.625 16.375 C3.19946241 13.41426808 2.76790308 11.9966533 2.5 8.875 C2.30834445 5.02904892 2.30834445 5.02904892 0.25 2.5 C-4.46426896 -0.64284597 -7.80465146 0.5028428 -11 5 Z " fill="#5B5B5B" transform="translate(202,78)"/>
<path d="M0 0 C3.684548 1.30494408 5.36536605 3.21986863 8 6.0625 C12.22022074 9.06265693 17.25288127 8.07157824 22.15625 7.72070312 C26.00484897 7.5806888 27.60979696 7.70638647 30.50390625 10.34765625 C32.53474453 14.03285887 32.11001256 16.06645478 31 20.0625 C29.9375 22 29.9375 22 28 23.0625 C24.91125705 23.46104748 22.95626558 23.70012591 20 23.0625 C17.25 20.6875 17.25 20.6875 15 18.0625 C10.40788809 14.8544592 4.86018906 16.07011048 -0.46875 16.28515625 C-4.16845358 16.05187848 -5.56467145 15.81970489 -8 13.0625 C-8.81919926 9.99474002 -8.64192923 7.16050631 -8 4.0625 C-5.41337195 0.86725358 -4.10950622 0.08561471 0 0 Z M-5.875 3.6875 C-7.32688252 6.75258532 -7.49926965 8.71026095 -7 12.0625 C-4.68135486 14.73785978 -3.35024244 15.03503 0.1875 15.3125 C2.90201339 15.37439416 2.90201339 15.37439416 4 14.0625 C8.50355324 14.01597569 12.07514656 14.45933471 15.875 16.9375 C18 19.0625 18 19.0625 19.4375 20.8125 C21.06255209 22.33591319 21.06255209 22.33591319 24 22.4375 C26.91801612 22.26637308 26.91801612 22.26637308 28.875 21 C30.64273274 17.9555714 30.36823916 15.4993988 30 12.0625 C29.01951062 9.99847315 29.01951062 9.99847315 27 9.0625 C23.6441106 8.75741915 20.86926648 9.0886467 17.5625 9.75 C13.10537641 10.14097575 10.89017514 9.22370841 7 7.0625 C6.154375 6.175625 5.30875 5.28875 4.4375 4.375 C2.16721156 1.79747344 2.16721156 1.79747344 -1.125 1.5 C-4.03686866 1.82213156 -4.03686866 1.82213156 -5.875 3.6875 Z " fill="#525252" transform="translate(147,51.9375)"/>
<path d="M0 0 C1.94050855 1.94050855 2.81636221 3.46540998 3.703125 6.046875 C4.89079658 8.27649156 4.89079658 8.27649156 7.71484375 8.87109375 C9.86031214 9.24817607 12.00614649 9.6231822 14.15234375 9.99609375 C17 11 17 11 18.88671875 13.43359375 C20.23159175 16.53387993 20.15953029 17.8527035 19 21 C17.8125 22.8125 17.8125 22.8125 16 24 C13.0625 24.4375 13.0625 24.4375 10 24 C7.44823362 22.03149451 6.08359841 20.14044532 4.4375 17.375 C3.07382261 14.74256396 3.07382261 14.74256396 0 13 C-1.9512833 12.65762865 -1.9512833 12.65762865 -4 12.5625 C-6.43756924 12.28916963 -7.84317373 12.08821478 -10 10.875 C-11.63486492 7.80962827 -11.42383837 5.39070692 -11 2 C-7.89207752 -1.97814077 -4.55239669 -1.24156273 0 0 Z M-8.375 1.625 C-10.27014232 3.88240459 -10.27014232 3.88240459 -9.875 6.625 C-9.13532087 9.14405125 -9.13532087 9.14405125 -7 11 C-4.67223125 11.60679507 -4.67223125 11.60679507 -2.0625 12 C1.42099497 12.57459711 2.98595726 12.99063817 6 15 C7.07136051 17.30144109 8.07989717 19.6340213 9 22 C12.41642759 22.25015873 12.41642759 22.25015873 16 22 C18.29637779 19.24104365 18.29637779 19.24104365 17.75 16.4375 C17.16191948 13.84999433 17.16191948 13.84999433 15 12 C13.741875 11.87625 12.48375 11.7525 11.1875 11.625 C7.05103443 11.18287777 4.922058 10.08903274 2 7 C1.2575 5.4221875 1.2575 5.4221875 0.5 3.8125 C-0.72820277 0.8278318 -0.72820277 0.8278318 -3.4375 -0.125 C-6.12615564 -0.21808557 -6.12615564 -0.21808557 -8.375 1.625 Z " fill="#616161" transform="translate(208,24)"/>
<path d="M0 0 C4.74134172 3.85147114 5.98255896 10.4929312 8 16 C3.38 16 -1.24 16 -6 16 C-4.23196827 10.52752083 -2.34565002 5.24978815 0 0 Z " fill="#EFEFEF" transform="translate(290,147)"/>
<path d="M0 0 C3.375 0.875 3.375 0.875 5.375 3.875 C5.83943597 7.5130818 5.80343764 9.23234354 3.75 12.3125 C1.375 13.875 1.375 13.875 -1.6875 13.75 C-4.625 12.875 -4.625 12.875 -7.625 10.875 C-12.44391378 10.34146502 -12.44391378 10.34146502 -16.625 12.375 C-19.63134789 14.62976092 -21.98107873 14.27251868 -25.625 13.875 C-27.5625 12.6875 -27.5625 12.6875 -28.625 10.875 C-28.8125 8.1875 -28.8125 8.1875 -28.625 5.875 C-27.635 7.36 -27.635 7.36 -26.625 8.875 C-25.39545984 10.68799492 -25.39545984 10.68799492 -23.625 11.875 C-20.14467799 11.61397585 -18.57403702 10.84102468 -15.625 8.875 C-13.46875 8.609375 -13.46875 8.609375 -11.125 8.625 C-10.3515625 8.61984375 -9.578125 8.6146875 -8.78125 8.609375 C-6.625 8.875 -6.625 8.875 -3.625 10.875 C-1.08269153 11.29179297 -1.08269153 11.29179297 1.375 10.875 C3.66100028 8.17167695 3.66100028 8.17167695 3.0625 5.75 C2.52921514 3.88906147 2.52921514 3.88906147 1.375 2.875 C-1.58317107 2.62494614 -1.58317107 2.62494614 -4.625 2.875 C-5.285 3.535 -5.945 4.195 -6.625 4.875 C-9.15625 5.140625 -9.15625 5.140625 -12.125 5.125 C-13.1046875 5.13015625 -14.084375 5.1353125 -15.09375 5.140625 C-17.625 4.875 -17.625 4.875 -19.625 2.875 C-23.35796326 2.49213197 -24.40126323 2.72584215 -27.625 4.875 C-26.965 3.555 -26.305 2.235 -25.625 0.875 C-19 0.625 -19 0.625 -15.625 2.875 C-10.20708384 3.50346274 -10.20708384 3.50346274 -5.5625 1.3125 C-3.625 -0.125 -3.625 -0.125 0 0 Z " fill="#4C4C4C" transform="translate(199.625,109.125)"/>
<path d="M0 0 C6.625 -0.25 6.625 -0.25 10 2 C10.4305182 4.79836832 10.37794659 6.35526759 8.9375 8.8125 C6.00731249 10.60842137 3.3527047 10.18977574 0 10 C0 6.7 0 3.4 0 0 Z " fill="#E7E7E7" transform="translate(61,143)"/>
<path d="M0 0 C0.77085937 0.11472656 1.54171875 0.22945312 2.3359375 0.34765625 C3.49996094 0.48494141 3.49996094 0.48494141 4.6875 0.625 C6.7109375 1.41015625 6.7109375 1.41015625 8.7109375 5.41015625 C3.7609375 5.41015625 -1.1890625 5.41015625 -6.2890625 5.41015625 C-2.2890625 0.41015625 -2.2890625 0.41015625 0 0 Z " fill="#F0F0F0" transform="translate(219.2890625,156.58984375)"/>
<path d="M0 0 C0.33 0 0.66 0 1 0 C1.309375 0.969375 1.61875 1.93875 1.9375 2.9375 C2.69523342 5.84065792 2.69523342 5.84065792 4 7 C6.47702057 7.49630649 8.96358132 7.89954792 11.45703125 8.3046875 C14.28065307 9.07673771 15.86823658 10.00747338 18 12 C18.4640625 13.5159375 18.4640625 13.5159375 18.9375 15.0625 C19.70680252 18.22286525 19.70680252 18.22286525 22.625 19.375 C23.800625 19.684375 23.800625 19.684375 25 20 C23.25 20.75 23.25 20.75 21 21 C18.50899026 19.03738627 17.05820991 17.09779264 15.4375 14.375 C14.07382261 11.74256396 14.07382261 11.74256396 11 10 C9.0487167 9.65762865 9.0487167 9.65762865 7 9.5625 C4.51458445 9.28837328 3.17268213 9.10253001 1 7.8125 C-0.44822131 5.18759888 -0.19588639 2.93829584 0 0 Z " fill="#545454" transform="translate(197,27)"/>
<path d="M0 0 C2.25171989 1.74326701 3.81770247 3.07549109 4.3828125 5.94140625 C4.44210938 6.64136719 4.50140625 7.34132813 4.5625 8.0625 C4.70570728 11.81753913 4.70570728 11.81753913 6.1875 14 C8.96782158 15.53397053 10.88339978 15.4452286 14 15 C16.37719693 13.12498069 16.37719693 13.12498069 18 11 C17.42655063 13.86724686 17.1385485 14.8614515 15 17 C8.08710801 17.66898955 8.08710801 17.66898955 4.5625 15.5 C2.78767946 12.66028714 2.4686088 10.28398071 2.21484375 6.97265625 C1.93759799 4.42703613 1.08154196 2.30728951 0 0 Z " fill="#525252" transform="translate(202,96)"/>
<path d="M0 0 C3 1 3 1 4.75 3.375 C7.49632599 6.57904699 10.14832029 7.38929757 14 9 C16.4267514 11.34846909 16.95712175 12.37111899 17.1875 15.75 C17.0946875 16.86375 17.0946875 16.86375 17 18 C16.34 17.67 15.68 17.34 15 17 C14.7215625 15.6078125 14.7215625 15.6078125 14.4375 14.1875 C13.36278421 10.929074 13.36278421 10.929074 11.01171875 9.9609375 C10.22410156 9.66445312 9.43648437 9.36796875 8.625 9.0625 C5.02014273 7.69834306 3.32284001 6.64633453 1.4375 3.25 C0.963125 2.1775 0.48875 1.105 0 0 Z " fill="#636363" transform="translate(204,90)"/>
<path d="M0 0 C1.9375 0.625 1.9375 0.625 4 2 C5 4.8125 5 4.8125 5 8 C3.0625 10.875 3.0625 10.875 1 13 C-0.65 12.67 -2.3 12.34 -4 12 C-4 11.67 -4 11.34 -4 11 C-2.35 10.67 -0.7 10.34 1 10 C2.0089034 5.76353233 2.0089034 5.76353233 1.0625 1.625 C0.711875 1.08875 0.36125 0.5525 0 0 Z " fill="#717171" transform="translate(223,35)"/>
<path d="M0 0 C0.33 0 0.66 0 1 0 C1.268125 1.0725 1.53625 2.145 1.8125 3.25 C2.6883576 6.91351468 2.6883576 6.91351468 4.6875 8.875 C6.85688163 12.38733216 5.69624393 16.07419086 5 20 C4.67 20 4.34 20 4 20 C3.96261719 19.39671875 3.92523438 18.7934375 3.88671875 18.171875 C3.4895433 13.34346758 2.96571763 10.86832735 0 7 C-0.1875 3.25 -0.1875 3.25 0 0 Z " fill="#676767" transform="translate(178,27)"/>
<path d="M0 0 C6.72505081 0.16439013 10.21055351 1.21055351 15 6 C14.67 6.99 14.34 7.98 14 9 C13.525625 8.21625 13.05125 7.4325 12.5625 6.625 C9.42030728 3.40616844 7.25382071 3.10163287 2.92578125 2.45703125 C2.29027344 2.30621094 1.65476563 2.15539062 1 2 C0.67 1.34 0.34 0.68 0 0 Z " fill="#686868" transform="translate(151,65)"/>
<path d="M0 0 C0.556875 0.78375 1.11375 1.5675 1.6875 2.375 C4.07668565 5.08704858 5.60073413 5.96133543 9 7 C7.3125 7.6875 7.3125 7.6875 5 8 C2.3125 6.75 2.3125 6.75 0 5 C-0.33 4.01 -0.66 3.02 -1 2 C-0.67 1.34 -0.34 0.68 0 0 Z " fill="#737373" transform="translate(196,67)"/>
<path d="M0 0 C3.375 0.25 3.375 0.25 7 1 C7.66 2.32 8.32 3.64 9 5 C6.03 4.01 3.06 3.02 0 2 C0 1.34 0 0.68 0 0 Z " fill="#6A6A6A" transform="translate(196,109)"/>
</svg>
