<?xml version="1.0" encoding="UTF-8"?>
<svg version="1.1" xmlns="http://www.w3.org/2000/svg" width="565" height="245">
<path d="M0 0 C186.45 0 372.9 0 565 0 C565 80.85 565 161.7 565 245 C378.55 245 192.1 245 0 245 C0 164.15 0 83.3 0 0 Z " fill="#F6F6F6" transform="translate(0,0)"/>
<path d="M0 0 C1.91232422 -0.02126953 1.91232422 -0.02126953 3.86328125 -0.04296875 C7.85325384 0.19748925 10.91288569 0.9520829 14.6875 2.1875 C15.3125 4.5625 15.3125 4.5625 15.6875 7.1875 C13.6875 9.1875 13.6875 9.1875 11.56787109 9.36694336 C10.70758301 9.33737549 9.84729492 9.30780762 8.9609375 9.27734375 C8.01089844 9.25736328 7.06085938 9.23738281 6.08203125 9.21679688 C4.09230228 9.15630706 2.10270441 9.09131181 0.11328125 9.02148438 C-9.66329603 8.8306898 -16.30559033 11.72274092 -24.3125 17.1875 C-25.17875 17.744375 -26.045 18.30125 -26.9375 18.875 C-35.44171369 27.1554186 -38.58330605 37.61137868 -38.75 49.125 C-38.64960217 61.15314968 -34.89925977 69.5863087 -26.3125 78.1875 C-17.32441574 85.53260112 -6.77815806 88.98298721 4.83203125 88.59765625 C16.22846354 86.96068581 26.02390854 81.14265752 33.0625 72.125 C40.27672017 61.72217423 41.92406906 51.09048419 40.0625 38.6875 C39.93875 37.5325 39.815 36.3775 39.6875 35.1875 C40.6775 34.1975 40.6775 34.1975 41.6875 33.1875 C44.3125 33.5625 44.3125 33.5625 46.6875 34.1875 C50.92334203 44.99914518 49.96287863 57.51494848 45.37817383 68.04663086 C39.72047457 79.8880651 29.98532516 89.39997028 17.6875 94.1875 C12.12532183 96.09885418 7.18728613 96.53998482 1.375 96.5 C0.53340332 96.49508545 -0.30819336 96.4901709 -1.17529297 96.48510742 C-13.76953325 96.2475492 -23.59236774 91.68847534 -33.09765625 83.51953125 C-34.3125 82.1875 -34.3125 82.1875 -34.3125 80.1875 C-34.9725 80.1875 -35.6325 80.1875 -36.3125 80.1875 C-45.96553405 67.74322719 -48.33555163 54.5607126 -47.3125 39.1875 C-45.53420567 27.14730537 -37.45532896 16.80908515 -28.3125 9.1875 C-19.71847531 3.33126511 -10.38107627 0.05216621 0 0 Z " fill="#2B2B2B" transform="translate(115.3125,75.8125)"/>
<path d="M0 0 C4.5025707 2.25128535 6.85403677 4.48208136 9 9 C9.28734449 11.79591612 9.42125949 14.36069912 9.3984375 17.15234375 C9.40130768 17.93009659 9.40417786 18.70784943 9.40713501 19.50917053 C9.40917025 21.14894339 9.40367823 22.78874082 9.39111328 24.4284668 C9.37507272 26.92617642 9.39096809 29.42226274 9.41015625 31.91992188 C9.4081733 33.51823271 9.40432854 35.11654254 9.3984375 36.71484375 C9.40754654 37.82604836 9.40754654 37.82604836 9.4168396 38.95970154 C9.35305076 43.70959241 8.4920207 46.95778577 6 51 C2.75953856 53.93666818 0.06485065 54.89954239 -4.3125 55.3125 C-8.75886282 54.93568959 -10.63948122 53.90226622 -14 51 C-17.07499182 46.09683231 -17.46726276 42.13962768 -17.46875 36.53125 C-17.47636353 35.73271606 -17.48397705 34.93418213 -17.49182129 34.1114502 C-17.50258061 32.43061435 -17.50549241 30.74971187 -17.50097656 29.06884766 C-17.50000266 26.50700013 -17.54169886 23.94813574 -17.5859375 21.38671875 C-17.59114422 19.74740203 -17.5938327 18.10807498 -17.59375 16.46875 C-17.61014526 15.70921021 -17.62654053 14.94967041 -17.64343262 14.16711426 C-17.56968209 8.45320412 -16.08311492 5.99886495 -12 2 C-7.95308865 -0.6979409 -4.75253951 -0.65804393 0 0 Z " fill="#393939" transform="translate(259,89)"/>
<path d="M0 0 C6.27 0 12.54 0 19 0 C25.14993122 6.14993122 25.14993122 6.14993122 25.25 12.3125 C25.22659724 16.78827771 24.73878485 19.34828686 22 23 C21.65404732 25.98527194 21.65404732 25.98527194 23.4375 27.5 C23.953125 27.995 24.46875 28.49 25 29 C26.9956132 34.9868396 26.8523154 41.75298667 24.625 47.625 C22.14941566 51.24316172 21.41765718 51.8955857 17 53 C11.39 53 5.78 53 0 53 C0 35.51 0 18.02 0 0 Z " fill="#2D2D2D" transform="translate(186,90)"/>
<path d="M0 0 C2.95579184 1.03860691 4.45570733 2.45400566 6.61798096 4.70706177 C7.30376221 5.40573364 7.98954346 6.10440552 8.69610596 6.82424927 C10.36798096 8.83206177 10.36798096 8.83206177 11.36798096 11.83206177 C-3.15201904 26.35206177 -17.67201904 40.87206177 -32.63201904 55.83206177 C-36.13822502 54.07895878 -38.17077034 52.67161034 -40.94451904 50.01956177 C-41.66252686 49.35311646 -42.38053467 48.68667114 -43.12030029 48.00003052 C-44.63201904 45.83206177 -44.63201904 45.83206177 -44.46386719 43.46826172 C-43.46473337 40.30191877 -42.16114059 38.8420227 -39.83416748 36.4848938 C-39.02953064 35.66119293 -38.2248938 34.83749207 -37.39587402 33.98883057 C-36.51989563 33.11467499 -35.64391724 32.24051941 -34.74139404 31.33987427 C-33.84462952 30.43453949 -32.94786499 29.52920471 -32.02392578 28.59643555 C-30.12557404 26.68659976 -28.22346105 24.78161015 -26.31414795 22.88284302 C-23.8679066 20.44821696 -21.44520805 17.99155967 -19.02807236 15.52807808 C-16.71719152 13.18067541 -14.38438454 10.85528477 -12.05389404 8.52737427 C-11.18601257 7.6410733 -10.3181311 6.75477234 -9.4239502 5.84161377 C-8.60670471 5.03682587 -7.78945923 4.23203796 -6.94744873 3.40286255 C-6.2332074 2.68736237 -5.51896606 1.97186218 -4.78308105 1.23468018 C-2.63201904 -0.16793823 -2.63201904 -0.16793823 0 0 Z " fill="#282828" transform="translate(145.63201904296875,84.16793823242188)"/>
<path d="M0 0 C17 0 17 0 23 3 C25.10339666 6.58850381 25.29677145 9.8896046 25.3125 14 C25.32925781 15.010625 25.34601563 16.02125 25.36328125 17.0625 C24.94904262 20.41204244 23.85592154 22.21846696 22 25 C21.67 25.99 21.34 26.98 21 28 C21.474375 28.433125 21.94875 28.86625 22.4375 29.3125 C24.99546144 32.07509835 25.147171 34.84692561 25.31640625 38.44921875 C25.35830078 39.29677734 25.40019531 40.14433594 25.44335938 41.01757812 C25.48267578 41.89865234 25.52199219 42.77972656 25.5625 43.6875 C25.60568359 44.58017578 25.64886719 45.47285156 25.69335938 46.39257812 C25.79935353 48.59490108 25.90142051 50.79733473 26 53 C24.52093108 53.02689216 23.04172517 53.04634621 21.5625 53.0625 C20.32693359 53.07990234 20.32693359 53.07990234 19.06640625 53.09765625 C17 53 17 53 16 52 C15.84344973 50.51361008 15.74933057 49.02050873 15.68359375 47.52734375 C15.64169922 46.62822266 15.59980469 45.72910156 15.55664062 44.80273438 C15.51732422 43.85720703 15.47800781 42.91167969 15.4375 41.9375 C15.39431641 40.98810547 15.35113281 40.03871094 15.30664062 39.06054688 C15.20020724 36.70718647 15.09818992 34.35371646 15 32 C12.69 31.67 10.38 31.34 8 31 C8 38.26 8 45.52 8 53 C5.36 53 2.72 53 0 53 C0 35.51 0 18.02 0 0 Z " fill="#3B3B3B" transform="translate(387,90)"/>
<path d="M0 0 C4.29 0 8.58 0 13 0 C14.14572163 6.5825669 15.28485992 13.16622678 16.41796875 19.75097656 C16.80419019 21.98989448 17.19219443 24.22850563 17.58203125 26.46679688 C18.14273928 29.68800727 18.69698236 32.91027406 19.25 36.1328125 C19.42499023 37.12991241 19.59998047 38.12701233 19.78027344 39.15432739 C20.57545521 43.82377038 21.22423783 48.2419535 21 53 C18.36 53 15.72 53 13 53 C11.8422494 49.52674819 11.93133348 46.63932552 12 43 C8.37 43 4.74 43 1 43 C0.67 46.3 0.34 49.6 0 53 C-2.64 53 -5.28 53 -8 53 C-7.2857989 44.8468728 -6.1361849 36.782083 -4.89819336 28.69580078 C-4.56322928 26.50477029 -4.233499 24.31299653 -3.90429688 22.12109375 C-2.78174979 14.70668128 -1.55300389 7.33884627 0 0 Z " fill="#3F3F3F" transform="translate(435,90)"/>
<path d="M0 0 C3.71015281 1.78636987 5.5278978 3.32332018 7.875 6.6875 C9.34481946 11.01530174 9.20715938 14.4424937 9 19 C6.03 19 3.06 19 0 19 C-0.495 14.05 -0.495 14.05 -1 9 C-2.65 9 -4.3 9 -6 9 C-7.38421065 10.15668501 -7.38421065 10.15668501 -7.11352539 13.32641602 C-7.11336629 14.80225556 -7.10767314 16.27810069 -7.09765625 17.75390625 C-7.09553383 18.91707619 -7.09553383 18.91707619 -7.09336853 20.10374451 C-7.08775345 22.59003494 -7.07519846 25.0762366 -7.0625 27.5625 C-7.05748694 29.24413933 -7.0529237 30.92578006 -7.04882812 32.60742188 C-7.03777913 36.73831566 -7.02050445 40.86914276 -7 45 C-5.34385343 45.38218767 -3.67542976 45.71395102 -2 46 C-0.12175109 44.12175109 -0.60897603 40.96064724 -0.4375 38.4375 C-0.35371094 37.23996094 -0.26992188 36.04242188 -0.18359375 34.80859375 C-0.09271484 33.41833984 -0.09271484 33.41833984 0 32 C-0.99 32 -1.98 32 -3 32 C-3 29.36 -3 26.72 -3 24 C0.63 24 4.26 24 8 24 C8.10798823 27.89657545 8.18732013 31.79015546 8.25 35.6875 C8.30027344 37.34168945 8.30027344 37.34168945 8.3515625 39.02929688 C8.45069154 47.23222485 8.45069154 47.23222485 6.12890625 51.1875 C2.67356627 54.12929404 0.05767798 54.88461695 -4.4375 55.375 C-8.77324712 54.91860557 -10.71260746 53.83911174 -14 51 C-16.95917817 46.27347394 -17.44312951 42.16678707 -17.3984375 36.71484375 C-17.40130768 35.93613419 -17.40417786 35.15742462 -17.40713501 34.3551178 C-17.4091672 32.71712512 -17.40369673 31.07910771 -17.39111328 29.44116211 C-17.37502472 26.94134103 -17.39100091 24.44313114 -17.41015625 21.94335938 C-17.40817409 20.34635062 -17.40433098 18.74934286 -17.3984375 17.15234375 C-17.40451019 16.40951645 -17.41058289 15.66668915 -17.4168396 14.90135193 C-17.3374006 9.01258725 -15.7842559 5.94169024 -11.875 1.6875 C-7.85493983 -0.67210053 -4.55428162 -0.78715979 0 0 Z " fill="#3B3B3B" transform="translate(289,89)"/>
<path d="M0 0 C7.59 0 15.18 0 23 0 C23 2.31 23 4.62 23 7 C18.38 7 13.76 7 9 7 C9 11.95 9 16.9 9 22 C12.96 22 16.92 22 21 22 C21 24.64 21 27.28 21 30 C17.04 30 13.08 30 9 30 C9 34.95 9 39.9 9 45 C13.62 45 18.24 45 23 45 C23 47.64 23 50.28 23 53 C15.41 53 7.82 53 0 53 C0 35.51 0 18.02 0 0 Z " fill="#404040" transform="translate(358,90)"/>
<path d="M0 0 C3.07061968 1.71368609 5.40450726 3.80901452 7 7 C7.13415472 9.6723621 7.04318541 12.32250488 7 15 C4.36 15 1.72 15 -1 15 C-1.33 13.02 -1.66 11.04 -2 9 C-3.66611905 8.957279 -5.33382885 8.95936168 -7 9 C-8.2916351 10.08473412 -8.2916351 10.08473412 -8.3125 12.6875 C-7.8644117 17.43723593 -5.91495743 20.33385374 -2.31640625 23.46484375 C-1.71699219 23.95082031 -1.11757813 24.43679687 -0.5 24.9375 C3.99096558 28.69445831 6.65661061 32.06558161 7.34375 37.9375 C7.50996644 43.58885897 7.42921066 47.31639874 4 52 C-0.37576915 54.88402967 -3.80099864 55.64987517 -9 55 C-13.00859305 52.88225273 -15.35447679 51.22478518 -17 47 C-17.1953125 44.640625 -17.1953125 44.640625 -17.125 42.25 C-17.10695313 41.45078125 -17.08890625 40.6515625 -17.0703125 39.828125 C-17.04710937 39.22484375 -17.02390625 38.6215625 -17 38 C-14.69 38 -12.38 38 -10 38 C-9.34 40.97 -8.68 43.94 -8 47 C-6.02 46.34 -4.04 45.68 -2 45 C-1.82164485 40.45194365 -2.00214565 37.1205746 -4 33 C-4.66 33 -5.32 33 -6 33 C-7.25477174 31.54710641 -8.50384895 30.08808362 -9.69921875 28.5859375 C-11.07713199 26.84519886 -11.07713199 26.84519886 -13.1875 24.875 C-16.71378968 21.22711413 -17.31172173 18.08046691 -17.375 13.0625 C-17.30824611 9.147861 -17.18869603 7.3369572 -15.25 3.875 C-10.50981154 -0.07515705 -6.07333165 -1.06125692 0 0 Z " fill="#383838" transform="translate(319,89)"/>
<path d="M0 0 C8.58 0 17.16 0 26 0 C26 2.31 26 4.62 26 7 C23.03 7 20.06 7 17 7 C17 22.18 17 37.36 17 53 C14.36 53 11.72 53 9 53 C9 37.82 9 22.64 9 7 C6.03 7 3.06 7 0 7 C0 4.69 0 2.38 0 0 Z " fill="#343434" transform="translate(329,90)"/>
<path d="M0 0 C2.64 0 5.28 0 8 0 C8 15.18 8 30.36 8 46 C12.62 46 17.24 46 22 46 C22 48.31 22 50.62 22 53 C14.74 53 7.48 53 0 53 C0 35.51 0 18.02 0 0 Z " fill="#2B2B2B" transform="translate(217,90)"/>
<path d="M0 0 C2.97 0 5.94 0 9 0 C9 17.82 9 35.64 9 54 C6.03 54 3.06 54 0 54 C0 36.18 0 18.36 0 0 Z " fill="#494949" transform="translate(460,89)"/>
<path d="M0 0 C2.5625 0.1875 2.5625 0.1875 4.5625 2.1875 C4.76212411 4.7334607 4.84236548 7.16825936 4.828125 9.71484375 C4.83003845 10.45956436 4.8319519 11.20428497 4.83392334 11.97157288 C4.83528514 13.54770241 4.83158903 15.12384315 4.82324219 16.69995117 C4.81255726 19.11207334 4.82312946 21.52344818 4.8359375 23.93554688 C4.83461561 25.46614748 4.8320526 26.99674762 4.828125 28.52734375 C4.83217346 29.24929428 4.83622192 29.97124481 4.84039307 30.71507263 C4.80571486 34.42267669 4.67439101 36.01966348 2.5625 39.1875 C-0.0625 39.375 -0.0625 39.375 -2.4375 39.1875 C-4.01907077 36.02435847 -3.5793935 32.62460457 -3.5703125 29.15234375 C-3.57126923 28.3584877 -3.57222595 27.56463165 -3.57321167 26.74671936 C-3.57389251 25.06804322 -3.5720449 23.38936445 -3.56787109 21.71069336 C-3.56251441 19.13193903 -3.56782292 16.55335832 -3.57421875 13.97460938 C-3.57355809 12.34635378 -3.57227718 10.71809829 -3.5703125 9.08984375 C-3.57233673 8.31382309 -3.57436096 7.53780243 -3.57644653 6.73826599 C-3.54791201 0.27291631 -3.54791201 0.27291631 0 0 Z " fill="#F5F5F5" transform="translate(254.4375,96.8125)"/>
<path d="M0 0 C4.02828516 1.32188977 6.1286906 2.86232974 8.8125 6.125 C9.41707031 6.84945312 10.02164063 7.57390625 10.64453125 8.3203125 C11.09183594 8.87460938 11.53914063 9.42890625 12 10 C10.96163321 12.84184595 10.19535007 13.88046211 7.57421875 15.484375 C6.62160156 15.90203125 5.66898438 16.3196875 4.6875 16.75 C3.74261719 17.17796875 2.79773438 17.6059375 1.82421875 18.046875 C-0.98945546 18.9964414 -3.05753233 19.1929487 -6 19 C-7.25512743 15.41294184 -7.01900739 14.04707824 -5.56640625 10.44921875 C-4.91261433 9.18786263 -4.24416656 7.93401267 -3.5625 6.6875 C-3.22412109 6.04232422 -2.88574219 5.39714844 -2.53710938 4.73242188 C-1.70396705 3.14827802 -0.85365096 1.57318718 0 0 Z " fill="#2F2F2F" transform="translate(97,131)"/>
<path d="M0 0 C2.7372522 1.05974351 4.34070001 2.53111872 6.44140625 4.57421875 C7.51841797 5.58742188 7.51841797 5.58742188 8.6171875 6.62109375 C10.12890625 8.82421875 10.12890625 8.82421875 9.984375 11.46484375 C9.12890625 13.82421875 9.12890625 13.82421875 7.12890625 15.82421875 C3.1614913 15.93757346 1.1366872 14.17344145 -1.62109375 11.57421875 C-4.26501361 8.79265447 -5.75058787 6.80091275 -5.87109375 2.82421875 C-2.4501644 -0.23018246 -2.4501644 -0.23018246 0 0 Z " fill="#323232" transform="translate(153.87109375,76.17578125)"/>
<path d="M0 0 C2.31 0 4.62 0 7 0 C9 2 9 2 9.265625 4.96875 C9.26046875 6.1340625 9.2553125 7.299375 9.25 8.5 C9.25515625 9.6653125 9.2603125 10.830625 9.265625 12.03125 C9 15 9 15 7 17 C4.69 17 2.38 17 0 17 C0 11.39 0 5.78 0 0 Z " fill="#E9E9E9" transform="translate(194,119)"/>
<path d="M0 0 C1.98 0 3.96 0 6 0 C8 2 8 2 8.265625 4.96875 C8.26046875 6.1340625 8.2553125 7.299375 8.25 8.5 C8.25515625 9.6653125 8.2603125 10.830625 8.265625 12.03125 C8 15 8 15 6 17 C4.02 17 2.04 17 0 17 C0 11.39 0 5.78 0 0 Z " fill="#EFEFEF" transform="translate(395,97)"/>
<path d="M0 0 C6 0 6 0 7.85546875 1.21484375 C9.3046459 3.47516443 9.36968984 4.8921742 9.3125 7.5625 C9.30863281 8.34753906 9.30476562 9.13257812 9.30078125 9.94140625 C9 12 9 12 7 14 C4.69 14 2.38 14 0 14 C0 9.38 0 4.76 0 0 Z " fill="#E3E3E3" transform="translate(194,97)"/>
<path d="M0 0 C0.33 0 0.66 0 1 0 C1.50440793 3.58272727 2.00275771 7.16627177 2.5 10.75 C2.64308594 11.76578125 2.78617187 12.7815625 2.93359375 13.828125 C3.06894531 14.8078125 3.20429688 15.7875 3.34375 16.796875 C3.46943359 17.69760742 3.59511719 18.59833984 3.72460938 19.52636719 C4 22 4 22 4 26 C1.69 26 -0.62 26 -3 26 C-1.59244792 1.59244792 -1.59244792 1.59244792 0 0 Z " fill="#EAEAEA" transform="translate(441,100)"/>
<path d="M0 0 C1.32 0 2.64 0 4 0 C4 2.31 4 4.62 4 7 C2.68 7 1.36 7 0 7 C0 4.69 0 2.38 0 0 Z " fill="#868686" transform="translate(327,154)"/>
<path d="M0 0 C1.32 0 2.64 0 4 0 C4 2.31 4 4.62 4 7 C2.68 7 1.36 7 0 7 C0 4.69 0 2.38 0 0 Z " fill="#848484" transform="translate(272,154)"/>
<path d="M0 0 C1.32 0.33 2.64 0.66 4 1 C4 2.98 4 4.96 4 7 C2.68 6.67 1.36 6.34 0 6 C0 4.02 0 2.04 0 0 Z " fill="#8C8C8C" transform="translate(401,154)"/>
<path d="M0 0 C0.99 0.33 1.98 0.66 3 1 C3 2.65 3 4.3 3 6 C1.68 6 0.36 6 -1 6 C-1.042721 4.33388095 -1.04063832 2.66617115 -1 1 C-0.67 0.67 -0.34 0.34 0 0 Z " fill="#858585" transform="translate(259,154)"/>
<path d="M0 0 C0.99 0 1.98 0 3 0 C3 2.31 3 4.62 3 7 C2.01 7 1.02 7 0 7 C0 4.69 0 2.38 0 0 Z " fill="#757575" transform="translate(228,154)"/>
<path d="M0 0 C0.99 0 1.98 0 3 0 C3 1.98 3 3.96 3 6 C2.01 6 1.02 6 0 6 C0 4.02 0 2.04 0 0 Z " fill="#777777" transform="translate(371,154)"/>
<path d="M0 0 C1.32 0.33 2.64 0.66 4 1 C3.67 2.65 3.34 4.3 3 6 C2.01 6 1.02 6 0 6 C0 4.02 0 2.04 0 0 Z " fill="#7A7A7A" transform="translate(306,154)"/>
<path d="M0 0 C0.99 0.33 1.98 0.66 3 1 C3 2.65 3 4.3 3 6 C2.01 6 1.02 6 0 6 C0 4.02 0 2.04 0 0 Z " fill="#7F7F7F" transform="translate(394,154)"/>
<path d="M0 0 C0.66 0 1.32 0 2 0 C2 1.98 2 3.96 2 6 C1.01 6 0.02 6 -1 6 C-1.042721 4.33388095 -1.04063832 2.66617115 -1 1 C-0.67 0.67 -0.34 0.34 0 0 Z " fill="#7F7F7F" transform="translate(244,154)"/>
<path d="M0 0 C0.99 0.33 1.98 0.66 3 1 C3 2.98 3 4.96 3 7 C2.01 6.67 1.02 6.34 0 6 C0 4.02 0 2.04 0 0 Z " fill="#888888" transform="translate(409,154)"/>
<path d="M0 0 C1.32 0.33 2.64 0.66 4 1 C3.34 2.65 2.68 4.3 2 6 C1.34 6 0.68 6 0 6 C0 4.02 0 2.04 0 0 Z " fill="#828282" transform="translate(201,154)"/>
<path d="M0 0 C0.99 0.33 1.98 0.66 3 1 C3 2.98 3 4.96 3 7 C2.01 6.67 1.02 6.34 0 6 C0 4.02 0 2.04 0 0 Z " fill="#848484" transform="translate(350,154)"/>
</svg>
