<?xml version="1.0" encoding="UTF-8"?>
<svg version="1.1" xmlns="http://www.w3.org/2000/svg" width="949" height="651">
<path d="M0 0 C313.17 0 626.34 0 949 0 C949 214.83 949 429.66 949 651 C635.83 651 322.66 651 0 651 C0 436.17 0 221.34 0 0 Z " fill="#1D1D1D" transform="translate(0,0)"/>
<path d="M0 0 C6.084375 -0.0825 12.16875 -0.165 18.4375 -0.25 C20.33943115 -0.28641602 22.2413623 -0.32283203 24.20092773 -0.36035156 C42.10610493 -0.56208013 42.10610493 -0.56208013 48.59155273 5.48364258 C53.22374636 10.67629229 53.34155237 15.38016991 53.28515625 22.04296875 C52.87957425 26.24879851 51.88833717 27.95119965 49 31 C46.75 32.375 46.75 32.375 45 33 C45 33.66 45 34.32 45 35 C45.7425 35.226875 46.485 35.45375 47.25 35.6875 C51.52914259 37.72981806 53.42404492 41.13606738 56 45 C56.85563754 51.87843682 56.1352427 57.83762641 53 64 C47.36008075 69.63991925 40.85985993 71.88946019 33.03588867 72.11352539 C31.49657296 72.11327755 29.9572508 72.10783955 28.41796875 72.09765625 C27.69565063 72.09664917 26.97333252 72.09564209 26.22912598 72.09460449 C23.54856768 72.08939952 20.86803213 72.07543837 18.1875 72.0625 C12.185625 72.041875 6.18375 72.02125 0 72 C0 48.24 0 24.48 0 0 Z " fill="#FAFAFA" transform="translate(184,398)"/>
<path d="M0 0 C1.20308991 0.63810294 2.39836854 1.29331857 3.5625 2 C3.5625 1.01 3.5625 0.02 3.5625 -1 C8.1825 -1 12.8025 -1 17.5625 -1 C17.68660229 6.79209666 17.77708008 14.58361103 17.8371582 22.37646484 C17.86221759 25.02435332 17.89627435 27.67217322 17.93969727 30.31982422 C18.00072279 34.13786804 18.02879732 37.95499294 18.05078125 41.7734375 C18.07658768 42.94675629 18.1023941 44.12007507 18.12898254 45.32894897 C18.13155899 52.97261258 16.84496712 58.59188017 12.5625 65 C10.31640625 67.21875 10.31640625 67.21875 8.125 68.5 C7.40441406 68.9434375 6.68382812 69.386875 5.94140625 69.84375 C-3.70542364 74.53252118 -14.97052521 74.4204991 -25.125 71.3125 C-29.63768248 69.59952257 -32.48030311 67.80211029 -35.4375 64 C-31.9725 59.545 -31.9725 59.545 -28.4375 55 C-26.7875 55.66 -25.1375 56.32 -23.4375 57 C-16.81083341 59.53346029 -10.463113 59.82304887 -3.4375 59 C0.47990064 56.48695053 1.27873039 55.15690687 2.375 50.6875 C2.436875 49.800625 2.49875 48.91375 2.5625 48 C2.02882813 48.28875 1.49515625 48.5775 0.9453125 48.875 C-6.69531501 52.68209468 -13.16210342 52.95327919 -21.4375 51.0625 C-28.99366033 48.52391617 -35.40406636 42.75961292 -39.0625 35.6875 C-41.63869482 28.65816841 -41.60443521 21.04554904 -38.75 14.125 C-31.29204406 -0.2711937 -15.25740769 -6.88651735 0 0 Z " fill="#FBFBFB" transform="translate(387.4375,417)"/>
<path d="M0 0 C0.53367187 0.39832031 1.06734375 0.79664063 1.6171875 1.20703125 C0.20742045 4.2455583 -1.47151478 6.80099075 -3.5078125 9.45703125 C-4.04664063 10.1634375 -4.58546875 10.86984375 -5.140625 11.59765625 C-5.55054688 12.12875 -5.96046875 12.65984375 -6.3828125 13.20703125 C-8.85311521 12.23639904 -11.29581638 11.24709333 -13.70703125 10.13671875 C-21.03417206 6.86675508 -27.22400752 6.0597747 -35.0078125 8.20703125 C-35.7915625 8.53703125 -36.5753125 8.86703125 -37.3828125 9.20703125 C-37.7128125 11.18703125 -38.0428125 13.16703125 -38.3828125 15.20703125 C-33.70608775 18.58956802 -28.72949049 19.4628146 -23.1953125 20.64453125 C-2.47887887 25.07417904 -2.47887887 25.07417904 3.6171875 34.20703125 C6.13968315 39.25202256 5.42586733 48.12683675 4.00390625 53.54296875 C1.61279758 58.19878388 -2.8148736 61.79617461 -7.3828125 64.20703125 C-21.79195587 68.59307803 -36.06540279 67.15197002 -49.3828125 60.20703125 C-51.50126389 58.6355951 -53.41854925 56.97547071 -55.3828125 55.20703125 C-54.00016413 52.33835894 -52.46132697 49.64679093 -50.7578125 46.95703125 C-50.31179688 46.250625 -49.86578125 45.54421875 -49.40625 44.81640625 C-49.06851562 44.2853125 -48.73078125 43.75421875 -48.3828125 43.20703125 C-46.39934913 44.19435524 -44.42031273 45.18759793 -42.453125 46.20703125 C-41.81117188 46.53703125 -41.16921875 46.86703125 -40.5078125 47.20703125 C-39.87101562 47.53703125 -39.23421875 47.86703125 -38.578125 48.20703125 C-33.59967593 50.47479453 -29.30138465 51.50011777 -23.8203125 51.51953125 C-22.17869141 51.54466797 -22.17869141 51.54466797 -20.50390625 51.5703125 C-17.00139377 51.16263583 -15.13315367 50.39730295 -12.3828125 48.20703125 C-11.48689167 44.60783702 -11.48689167 44.60783702 -11.3828125 41.20703125 C-17.04472232 38.51936681 -22.58122199 37.18205276 -28.6953125 35.89453125 C-38.49786775 33.69113853 -47.66220055 31.16103257 -53.3828125 22.20703125 C-55.97265573 17.0273448 -54.97764211 9.13147998 -53.3203125 3.76953125 C-40.68938993 -12.93588247 -15.78658666 -11.22541024 0 0 Z " fill="#FAFAFA" transform="translate(473.3828125,404.79296875)"/>
<path d="M0 0 C7.89770756 4.21707781 14.18035755 10.35571539 17.3125 18.8125 C19.0254638 27.09182504 18.04217206 33.00956609 14.0625 40.4375 C9.79589747 46.92228315 4.45484195 51.03859238 -2.9375 53.4375 C-12.5897861 55.3466131 -21.27004343 54.60557313 -29.6875 49.3125 C-35.18466557 45.01093545 -39.54410658 38.26512775 -40.9375 31.4375 C-41.66411671 23.74857406 -40.91678329 16.67319821 -36.390625 10.23828125 C-27.29157381 -0.65239728 -13.68621333 -5.56524905 0 0 Z " fill="#FAFAFA" transform="translate(319.9375,416.5625)"/>
<path d="M0 0 C2.96658887 3.50226775 5.17827565 6.96762957 7.25 11.05859375 C7.54478745 11.63568588 7.83957489 12.21277802 8.14329529 12.80735779 C8.77348406 14.04182503 9.4012675 15.27752269 10.02682495 16.51434326 C11.68351009 19.78823031 13.35947714 23.05221061 15.03515625 26.31640625 C15.37096207 26.97129028 15.70676788 27.62617432 16.05274963 28.30090332 C19.09016796 34.20892628 22.23814878 40.05308494 25.4375 45.875 C26.1651355 47.19999512 26.1651355 47.19999512 26.9074707 48.55175781 C27.83439123 50.2383422 28.76170065 51.92471294 29.68945312 53.61083984 C31.70889583 57.29233506 33.70412333 60.98647091 35.6875 64.6875 C36.31011719 65.84636719 36.93273437 67.00523437 37.57421875 68.19921875 C39 71 39 71 40 74 C34.39 74 28.78 74 23 74 C18 65.25 18 65.25 18 63 C6.45 63 -5.1 63 -17 63 C-17.66 64.98 -18.32 66.96 -19 69 C-20.08203125 71.85546875 -20.08203125 71.85546875 -22 74 C-24.91513959 74.61873935 -27.72463818 74.47048689 -30.6875 74.3125 C-31.48478516 74.28994141 -32.28207031 74.26738281 -33.10351562 74.24414062 C-35.06981334 74.18526944 -37.03514491 74.09558755 -39 74 C-37.59533971 70.33162752 -35.96995639 66.86636047 -34.1640625 63.37890625 C-33.60041992 62.28964844 -33.03677734 61.20039063 -32.45605469 60.078125 C-31.85180664 58.91796875 -31.24755859 57.7578125 -30.625 56.5625 C-30.31453735 55.9648584 -30.00407471 55.3672168 -29.6842041 54.75146484 C-24.99131597 45.72043606 -20.1894399 36.75321456 -15.28442383 27.83544922 C-11.44236761 20.84481592 -7.70908168 13.80151385 -4.03222656 6.72265625 C-1.10188595 1.10188595 -1.10188595 1.10188595 0 0 Z " fill="#F9F9F9" transform="translate(700,396)"/>
<path d="M0 0 C5.59209656 3.05982642 9.11543837 6.79948922 11.3125 12.8125 C12.16629564 17.86021489 11.74394496 21.68849072 9.125 26.125 C5.25044712 31.5301083 2.0034851 33.6417946 -4.4375 35.25 C-10.96592863 37.35620503 -14.6318076 41.03787828 -18.0546875 46.890625 C-20.45338028 51.85219915 -20.58352228 57.02047142 -20.44018555 62.45556641 C-20.32217124 68.12403951 -21.39805296 71.13985792 -24.6875 75.8125 C-26.50390625 77.5546875 -26.50390625 77.5546875 -28.25 78.6875 C-29.11818359 79.27144531 -29.11818359 79.27144531 -30.00390625 79.8671875 C-34.05402329 82.14126714 -38.16544271 82.39287099 -42.6875 81.8125 C-48.85316651 79.76099432 -52.4849063 76.58155926 -55.76953125 70.9609375 C-57.84410192 66.10555933 -57.23419842 60.55510121 -55.6875 55.625 C-51.79821715 50.15569599 -47.5835667 45.90397298 -40.875 44.4375 C-39.4797752 44.2251295 -38.08399832 44.01632816 -36.6875 43.8125 C-35.2025 43.3175 -35.2025 43.3175 -33.6875 42.8125 C-32.98239606 41.16172725 -32.31967245 39.49255363 -31.6875 37.8125 C-30.68385548 36.56925865 -29.66210106 35.34047225 -28.625 34.125 C-24.91374637 28.83087433 -25.01715682 23.54126175 -25.08959961 17.28442383 C-25.07965358 11.1331338 -23.46671316 7.67325487 -19.08984375 3.16796875 C-12.94515422 -1.73139703 -7.37227048 -2.374121 0 0 Z " fill="#212121" transform="translate(460.6875,262.1875)"/>
<path d="M0 0 C5.47711567 2.96151262 7.77133911 5.93901732 9.75 11.875 C10.32284345 17.65851561 9.91126929 21.86057285 6.75 26.875 C6.33717773 27.36202393 5.92435547 27.84904785 5.49902344 28.35083008 C1.4475688 33.25416342 1.0062966 37.20312361 1.1875 43.4375 C1.17654297 44.26185547 1.16558594 45.08621094 1.15429688 45.93554688 C1.23592416 52.74326261 3.55538503 56.22855254 7.875 61.4375 C11.11528296 65.64986785 12.27529611 69.37006132 12.1328125 74.75390625 C11.20464597 79.89670649 7.94617418 83.73863453 4.25 87.25 C-0.69112833 90.46173342 -5.31803765 91.94559357 -11.25 90.875 C-16.33490273 88.64170334 -20.18188906 85.53852863 -23.25 80.875 C-24.88604873 75.9668538 -24.74588476 70.99687822 -24.25 65.875 C-22.54714272 62.53010176 -20.79178448 60.41678448 -18.16015625 57.78515625 C-15.52399351 53.7689165 -15.4444556 50.47238859 -15.4375 45.75 C-15.43085327 44.48446289 -15.43085327 44.48446289 -15.42407227 43.19335938 C-15.73240533 34.62252244 -19.22274305 30.79971382 -25.25 24.875 C-27.12298772 19.25603684 -26.78881173 13.70097309 -25.125 8.0625 C-19.38700256 -1.69209565 -10.22397527 -4.68975857 0 0 Z " fill="#262626" transform="translate(480.25,138.125)"/>
<path d="M0 0 C9.28951898 7.63804894 9.28951898 7.63804894 10.11328125 13.42578125 C10.14531177 19.43684301 9.53676548 24.51886665 5.125 29.04296875 C0.62647462 32.98855038 -1.91547395 34.46248751 -8 34.5 C-9.55654297 34.52126953 -9.55654297 34.52126953 -11.14453125 34.54296875 C-14.25107917 34.30768463 -16.35412371 33.54646622 -19.1875 32.3125 C-26.75715199 31.3662935 -33.58538667 33.58049599 -40.1875 37.3125 C-42.72920743 40.06850825 -44.37686121 43.05216675 -46.1875 46.3125 C-49.76398388 50.31475578 -52.5234045 52.95094418 -57.921875 53.68359375 C-64.97647169 53.83894109 -69.87861635 53.19453873 -75.1875 48.3125 C-78.75752118 43.59085908 -79.67648254 38.59149101 -79.58984375 32.7578125 C-78.70996071 27.41017382 -75.54797333 23.15337229 -71.32421875 19.859375 C-66.48193457 17.10344573 -61.67230796 16.43811033 -56.1875 17.3125 C-55.011875 17.828125 -53.83625 18.34375 -52.625 18.875 C-45.4528795 21.87425039 -38.10048919 18.77221975 -31.1796875 16.0390625 C-27.02487866 13.64164017 -25.47621039 10.82976813 -23.375 6.62109375 C-21.28215178 2.55243158 -18.44421784 0.87104126 -14.375 -0.9375 C-8.97618485 -2.20780945 -5.00006509 -2.64709328 0 0 Z " fill="#282828" transform="translate(571.1875,199.6875)"/>
<path d="M0 0 C5.11671948 2.71614404 9.06250198 6.80859968 10.8984375 12.31640625 C10.8984375 14.62890625 10.8984375 16.94140625 10.8984375 19.25390625 C11.12529029 27.04758114 13.95811586 31.23562881 18.96484375 37.0234375 C20.8984375 39.31640625 20.8984375 39.31640625 20.8984375 41.31640625 C21.76726563 41.4865625 22.63609375 41.65671875 23.53125 41.83203125 C32.74688566 43.7699949 38.28247496 45.41245897 43.8984375 53.31640625 C46.28678133 58.09309391 45.41488446 64.7063069 43.8359375 69.62890625 C40.94845773 73.63412012 37.34601769 77.09261616 32.8984375 79.31640625 C26.69179558 79.84376798 21.11735418 80.07888107 15.8984375 76.31640625 C12.51591266 73.01365794 9.62783959 70.11329766 8.8984375 65.31640625 C8.8984375 63.14973958 8.8984375 60.98307292 8.8984375 58.81640625 C8.37440155 50.45803287 4.72777169 45.15514259 -1.1015625 39.31640625 C-4.32559003 37.05251231 -7.16345017 35.89931761 -10.9765625 35.00390625 C-16.00360054 33.57082526 -19.78169704 31.40964946 -23.1015625 27.31640625 C-25.68524334 22.07968402 -25.76738303 17.04575077 -25.1015625 11.31640625 C-23.4452188 6.43690723 -20.35813451 3.15412092 -16.1015625 0.31640625 C-11.01407555 -1.37942273 -5.14914876 -1.67490898 0 0 Z " fill="#252525" transform="translate(505.1015625,260.68359375)"/>
<path d="M0 0 C5.8439755 2.51599728 9.51145008 7.08462369 12.80859375 12.421875 C12.80859375 13.081875 12.80859375 13.741875 12.80859375 14.421875 C13.56785156 14.62683594 14.32710938 14.83179688 15.109375 15.04296875 C16.10324219 15.31238281 17.09710938 15.58179688 18.12109375 15.859375 C19.10722656 16.12621094 20.09335937 16.39304688 21.109375 16.66796875 C23.02376901 17.20266925 24.9229299 17.79332038 26.80859375 18.421875 C31.61453587 18.79156286 34.4219416 18.13631698 38.7265625 16.10546875 C43.83208658 14.42917098 49.90128225 14.45623225 54.99609375 16.1484375 C59.88799735 18.74198984 62.77584478 22.25802001 65.12109375 27.171875 C66.23042494 32.41598608 65.75468301 37.16177289 63.68359375 42.109375 C59.96673595 46.69349962 55.87554643 50.8603628 49.828125 51.6953125 C43.57368796 51.9831273 39.47529427 50.65577668 34.80859375 46.421875 C33.59722906 44.77247219 32.41121137 43.10426466 31.24609375 41.421875 C26.29974432 34.85618498 19.7480312 32.81106607 11.80859375 31.421875 C7.89076999 31.72106897 5.384393 32.10894062 1.93359375 33.984375 C-3.52473033 36.49520408 -8.29449735 36.02256282 -13.94140625 34.234375 C-18.6822865 31.59042255 -22.15120521 28.49990841 -24.19140625 23.421875 C-24.84869236 17.93430026 -24.94749154 13.02128618 -22.56640625 7.984375 C-15.86808648 0.75724051 -10.01876805 -2.64309745 0 0 Z " fill="#222222" transform="translate(391.19140625,204.578125)"/>
<path d="M0 0 C7.1657204 4.10357958 11.57993577 8.30122085 14.80078125 16.03125 C16.19808181 21.19051362 15.80078125 25.45970896 15.80078125 31.03125 C1.61078125 31.03125 -12.57921875 31.03125 -27.19921875 31.03125 C-24.46953569 37.05418756 -24.46953569 37.05418756 -19.21875 39.55859375 C-12.67059439 41.09114081 -7.7378615 40.34047084 -1.92578125 37.00390625 C-0.19921875 36.03125 -0.19921875 36.03125 2.80078125 35.03125 C5.28125 36.24609375 5.28125 36.24609375 7.98828125 37.96875 C8.88933594 38.53464844 9.79039062 39.10054688 10.71875 39.68359375 C11.40582031 40.12832031 12.09289062 40.57304687 12.80078125 41.03125 C6.88288918 48.50206411 1.41650666 52.80852824 -8.19921875 54.03125 C-18.26998114 54.85958111 -25.59806192 53.49869762 -33.51171875 47.03125 C-39.74584047 41.04920785 -42.27758947 34.4854494 -42.63671875 25.90625 C-42.16860664 16.66103585 -38.91171445 10.35648633 -32.19921875 4.03125 C-23.34159573 -2.83792703 -10.40297599 -4.81165485 0 0 Z " fill="#FAFAFA" transform="translate(569.19921875,416.96875)"/>
<path d="M0 0 C4.49084849 2.57685218 7.17722242 5.00370726 8.7421875 10.08984375 C9.18620664 14.20248008 9.2771987 17.79952261 7.6796875 21.65234375 C5.51874332 27.27079861 8.0489538 34.47565871 9.80078125 40.02734375 C10.60358859 42.30464383 10.60358859 42.30464383 13.0546875 43.46484375 C13.9415625 43.67109375 14.8284375 43.87734375 15.7421875 44.08984375 C21.00158878 46.92992044 22.9929068 49.35609033 24.7421875 55.08984375 C25.26870058 59.37716452 25.08351721 61.44510986 23.0546875 65.27734375 C20.08543242 68.88859993 16.68680118 72.72401598 11.82421875 73.328125 C6.18692965 73.51247697 2.06952284 72.89027557 -2.2578125 69.08984375 C-5.17004184 65.68649881 -6.48914304 62.4439504 -6.6328125 57.96484375 C-6.29214098 54.44457138 -5.57298824 52.29558462 -4.2578125 49.08984375 C-3.31825932 42.37874961 -5.56126656 36.62242244 -9.2578125 31.08984375 C-11.75015864 29.00049864 -14.23105209 27.33755361 -17.05078125 25.72265625 C-20.45757775 23.20222981 -21.03888563 20.51707853 -21.6640625 16.44140625 C-21.83649641 11.42645341 -21.80132183 7.99452544 -18.5078125 4.02734375 C-13.39351025 -1.25485226 -6.90609952 -2.78394669 0 0 Z " fill="#1F1F1F" transform="translate(380.2578125,243.91015625)"/>
<path d="M0 0 C4.33885052 1.77019075 7.24463199 3.96136899 10 7.75 C11.69384907 13.25500948 11.99873964 17.82882686 9.5625 23.125 C7.24324878 25.72708673 5.28278598 27.19724924 2.4375 29.125 C-2.42250529 32.71996273 -3.52570857 36.24731003 -4.7578125 42.03515625 C-5.16378661 47.00506516 -4.22075598 50.62168027 -2 55 C-1.15387107 60.32274132 -1.67095603 64.96857026 -4.6796875 69.4921875 C-7.63961873 72.87246399 -10.81285352 74.63039511 -15.2421875 75.37890625 C-21.62009075 75.71175979 -25.01903318 73.56979898 -29.8125 69.4375 C-32.73699499 65.89732186 -32.50944841 61.23731954 -32.48046875 56.8671875 C-31.66710351 52.01344698 -28.82217046 48.94979887 -25 46 C-24.13375 45.71640625 -23.2675 45.4328125 -22.375 45.140625 C-19.75514873 44.19797356 -19.75514873 44.19797356 -18.85546875 41.42578125 C-16.43155005 31.38102169 -16.43155005 31.38102169 -18.5625 21.5625 C-20.31176168 17.22737323 -20.31866528 14.43468941 -19 10 C-14.87535755 2.05624417 -8.85226139 -1.71961159 0 0 Z " fill="#292929" transform="translate(580,238)"/>
<path d="M0 0 C4.77862512 1.40005332 7.40983223 3.17057503 10.3125 7.25 C11.27477815 9.1582465 11.97787982 10.91487083 12.515625 12.984375 C14.15151596 19.0138017 17.52283888 21.60923807 22.828125 24.74609375 C27.31801643 26.52103851 31.15129589 26.15208154 35.90234375 25.86328125 C40.93455147 26.08538373 44.48979164 28.49782415 48 32 C50.63700667 36.17526056 50.52621117 40.20563159 50 45 C48.5758133 49.11431714 46.49408554 52.37911044 43.00390625 55.08203125 C38.56751834 57.11429472 33.72603072 56.7001527 29 56 C24.43507321 53.83766626 22.12279169 51.54883934 20 47 C19.83757813 46.31550781 19.67515625 45.63101563 19.5078125 44.92578125 C17.99250472 38.81265603 15.46397881 35.70647458 10.16015625 32.29296875 C5.70518969 30.47023212 1.49231494 30.26260989 -3.28979492 30.34960938 C-8.38137652 30.38484088 -11.09568582 29.23549315 -15 26 C-18.06663547 22.26078651 -19.34704501 18.25669916 -19.125 13.4375 C-18.29895285 8.46400776 -15.68410781 5.30836547 -12 2 C-7.91480969 -0.72346021 -4.79371531 -0.61278885 0 0 Z " fill="#292929" transform="translate(515,138)"/>
<path d="M0 0 C4.31361647 1.68793688 7.88375256 4.82846698 10 9 C10.82093955 13.71848431 10.3941678 17.77112393 8.9375 22.3125 C6.38922703 25.84720122 4.05273619 28.38296503 0 30 C-2.24643316 30.15159978 -4.49856671 30.22780624 -6.75 30.25 C-13.88704932 30.5245019 -17.70962015 32.66730084 -22.92578125 37.45703125 C-25.49063359 40.60151124 -26.23802834 42.95572331 -26.6953125 46.92578125 C-27.32912166 51.240559 -29.96092822 54.08317196 -33.125 56.875 C-38.55860186 59.00119203 -43.91585109 58.73331165 -49.375 56.8125 C-52.79097353 54.45385161 -55.19203897 52.01990258 -56.75 48.125 C-57.30215507 43.4316819 -57.60722902 40.16774812 -55.375 35.875 C-49.97358197 29.33644134 -49.97358197 29.33644134 -47 28 C-44.75465742 27.82170977 -42.5020709 27.72658149 -40.25 27.6875 C-32.46449191 27.43183183 -28.25727635 24.58314059 -23 19 C-20.76487224 16.04715525 -20.76487224 16.04715525 -20.1875 12.1875 C-17.72421931 1.57193322 -9.93679686 -0.920615 0 0 Z " fill="#252525" transform="translate(438,140)"/>
<path d="M0 0 C4.25967609 2.33807264 7.30627689 4.95941534 10 9 C10.70579636 14.15395484 10.78202168 19.32090629 8.3125 24 C5.39174993 27.78908118 2.92317097 29.6578082 -1.83203125 30.50390625 C-10.84269266 30.681049 -10.84269266 30.681049 -14.75 27 C-19.50689707 22.83025131 -25.07292722 22.97468473 -31.08984375 23.328125 C-36.13669154 24.19531563 -38.88782069 26.1556344 -42.765625 29.36328125 C-46.32270676 31.96890582 -49.66980294 32.41853206 -54 32 C-59.24827706 30.45132808 -61.9714948 28.54275781 -65 24 C-66.96390569 20.07218861 -66.335891 15.29194058 -66 11 C-64.2290203 6.37577522 -61.43118719 4.13646525 -57 2 C-51.56908234 1.19990945 -47.38072779 1.2603244 -42.5 3.875 C-41.2625 4.926875 -41.2625 4.926875 -40 6 C-36.24715915 8.5018939 -34.10193043 8.29930669 -29.625 8.3125 C-28.31789063 8.32925781 -27.01078125 8.34601563 -25.6640625 8.36328125 C-21.81376637 7.98153547 -20.0810408 7.24947962 -17 5 C-11.49237094 1.02599936 -6.96661303 -1.74468222 0 0 Z " fill="#222222" transform="translate(505,330)"/>
<path d="M0 0 C4.95 0 9.9 0 15 0 C15 4.62 15 9.24 15 14 C18.63 14 22.26 14 26 14 C26 18.62 26 23.24 26 28 C22.37 28 18.74 28 15 28 C15.495 42.355 15.495 42.355 16 57 C18.97 57.33 21.94 57.66 25 58 C25 62.29 25 66.58 25 71 C10.25201686 71.55228231 10.25201686 71.55228231 4 68 C3.34 67.67 2.68 67.34 2 67 C-0.62614391 63.31948063 -0.25531194 59.28303587 -0.1953125 54.953125 C-0.1924826 54.18192322 -0.18965271 53.41072144 -0.18673706 52.6161499 C-0.17557013 50.16060668 -0.15047229 47.7054324 -0.125 45.25 C-0.11496568 43.58203653 -0.10584061 41.91406732 -0.09765625 40.24609375 C-0.07564225 36.16392103 -0.04113667 32.082023 0 28 C-2.31 28 -4.62 28 -7 28 C-7 23.71 -7 19.42 -7 15 C-4.69 15 -2.38 15 0 15 C0 10.05 0 5.1 0 0 Z " fill="#F6F6F6" transform="translate(493,400)"/>
<path d="M0 0 C0 4.62 0 9.24 0 14 C-1.52625 14.226875 -3.0525 14.45375 -4.625 14.6875 C-9.81828722 15.73204219 -12.39690027 17.12666779 -16 21 C-18.00474587 24.97441951 -18.29722057 28.41151155 -18.4140625 32.83203125 C-18.45273437 34.12431641 -18.49140625 35.41660156 -18.53125 36.74804688 C-18.56270014 38.10285995 -18.59394761 39.45767775 -18.625 40.8125 C-18.6632175 42.18687272 -18.7022714 43.56122244 -18.7421875 44.93554688 C-18.83635162 48.29014376 -18.9192603 51.64505317 -19 55 C-23.95 55 -28.9 55 -34 55 C-34 37.18 -34 19.36 -34 1 C-29.05 1 -24.1 1 -19 1 C-19 2.98 -19 4.96 -19 7 C-18.34 7 -17.68 7 -17 7 C-16.75765625 6.37609375 -16.5153125 5.7521875 -16.265625 5.109375 C-14.68851478 2.48085797 -13.64127508 2.13508421 -10.75 1.25 C-10.00234375 1.00765625 -9.2546875 0.7653125 -8.484375 0.515625 C-6 0 -6 0 0 0 Z " fill="#F7F7F7" transform="translate(630,415)"/>
<path d="M0 0 C4.95 0 9.9 0 15 0 C15 23.76 15 47.52 15 72 C10.05 72 5.1 72 0 72 C0 48.24 0 24.48 0 0 Z " fill="#FEFEFE" transform="translate(750,398)"/>
<path d="M0 0 C4.62 0 9.24 0 14 0 C14 24.09 14 48.18 14 73 C9.38 73 4.76 73 0 73 C0 48.91 0 24.82 0 0 Z " fill="#FFFFFF" transform="translate(253,396)"/>
<path d="M0 0 C5.59209656 3.05982642 9.11543837 6.79948922 11.3125 12.8125 C12.16629564 17.86021489 11.74394496 21.68849072 9.125 26.125 C5.25044712 31.5301083 2.0034851 33.6417946 -4.4375 35.25 C-10.96592863 37.35620503 -14.6318076 41.03787828 -18.0546875 46.890625 C-20.45338028 51.85219915 -20.58352228 57.02047142 -20.44018555 62.45556641 C-20.32217124 68.12403951 -21.39805296 71.13985792 -24.6875 75.8125 C-26.50390625 77.5546875 -26.50390625 77.5546875 -28.25 78.6875 C-29.11818359 79.27144531 -29.11818359 79.27144531 -30.00390625 79.8671875 C-34.05402329 82.14126714 -38.16544271 82.39287099 -42.6875 81.8125 C-48.85316651 79.76099432 -52.4849063 76.58155926 -55.76953125 70.9609375 C-57.84410192 66.10555933 -57.23419842 60.55510121 -55.6875 55.625 C-51.79821715 50.15569599 -47.5835667 45.90397298 -40.875 44.4375 C-39.4797752 44.2251295 -38.08399832 44.01632816 -36.6875 43.8125 C-35.2025 43.3175 -35.2025 43.3175 -33.6875 42.8125 C-32.98239606 41.16172725 -32.31967245 39.49255363 -31.6875 37.8125 C-30.68385548 36.56925865 -29.66210106 35.34047225 -28.625 34.125 C-24.91374637 28.83087433 -25.01715682 23.54126175 -25.08959961 17.28442383 C-25.07965358 11.1331338 -23.46671316 7.67325487 -19.08984375 3.16796875 C-12.94515422 -1.73139703 -7.37227048 -2.374121 0 0 Z M-19.6875 7.8125 C-21.71538164 11.56269207 -21.78696537 14.73002493 -21.7097168 18.94311523 C-21.6167565 28.59566288 -23.91676141 34.60955116 -29.94921875 42.08984375 C-33.89939548 46.01748024 -37.85336547 47.7147828 -43.1875 49 C-47.72634224 50.47454773 -50.05087337 52.67291847 -52.65234375 56.63671875 C-54.72607614 60.99546947 -54.39610841 64.41547895 -53.0546875 68.953125 C-51.42705747 72.91222508 -49.64693716 75.23244145 -45.875 77.3125 C-42.01637616 78.91608393 -38.87732517 79.43321484 -34.6875 78.8125 C-29.40911673 76.0180618 -25.59885539 72.54656618 -23.6875 66.8125 C-23.84870248 64.54127223 -24.01632112 62.27049765 -24.1875 60 C-24.57306141 49.77886727 -19.11425391 43.02564332 -12.73046875 35.5078125 C-10.26107272 33.45863874 -8.37872744 33.00421703 -5.25 32.375 C-0.39004983 31.17780855 2.19774324 29.90061825 5.3125 25.8125 C5.910625 25.02875 6.50875 24.245 7.125 23.4375 C8.7367589 19.87466454 8.83967736 17.70043306 8.3125 13.8125 C6.30373055 9.48408011 3.70861427 4.9477555 -0.6875 2.8125 C-8.42024675 1.19111762 -13.818222 2.1062575 -19.6875 7.8125 Z " fill="#E7E7E7" transform="translate(460.6875,262.1875)"/>
<path d="M0 0 C5.47711567 2.96151262 7.77133911 5.93901732 9.75 11.875 C10.32284345 17.65851561 9.91126929 21.86057285 6.75 26.875 C6.33717773 27.36202393 5.92435547 27.84904785 5.49902344 28.35083008 C1.4475688 33.25416342 1.0062966 37.20312361 1.1875 43.4375 C1.17654297 44.26185547 1.16558594 45.08621094 1.15429688 45.93554688 C1.23592416 52.74326261 3.55538503 56.22855254 7.875 61.4375 C11.11528296 65.64986785 12.27529611 69.37006132 12.1328125 74.75390625 C11.20464597 79.89670649 7.94617418 83.73863453 4.25 87.25 C-0.69112833 90.46173342 -5.31803765 91.94559357 -11.25 90.875 C-16.33490273 88.64170334 -20.18188906 85.53852863 -23.25 80.875 C-24.88604873 75.9668538 -24.74588476 70.99687822 -24.25 65.875 C-22.54714272 62.53010176 -20.79178448 60.41678448 -18.16015625 57.78515625 C-15.52399351 53.7689165 -15.4444556 50.47238859 -15.4375 45.75 C-15.43085327 44.48446289 -15.43085327 44.48446289 -15.42407227 43.19335938 C-15.73240533 34.62252244 -19.22274305 30.79971382 -25.25 24.875 C-27.12298772 19.25603684 -26.78881173 13.70097309 -25.125 8.0625 C-19.38700256 -1.69209565 -10.22397527 -4.68975857 0 0 Z M-22.1875 8 C-23.78626694 12.32607525 -23.90984883 16.32204309 -23.25 20.875 C-21.72839206 23.80550418 -20.0210473 25.96274346 -17.90625 28.46484375 C-13.24510605 34.00672711 -13.04441442 37.74219553 -13 44.6875 C-12.979375 45.48220703 -12.95875 46.27691406 -12.9375 47.09570312 C-12.89395467 53.67649185 -14.50464014 58.09716448 -18.9375 63.0625 C-21.80492453 66.97262435 -21.90637627 70.53650562 -21.671875 75.28515625 C-20.89550309 80.05121717 -18.64784887 82.64160394 -15.125 85.75 C-9.69841342 87.87344692 -4.3533667 87.57612223 1.125 85.75 C5.15862792 82.8688372 7.31906282 80.30459411 8.203125 75.3203125 C8.51950812 70.12875306 8.12471249 66.69662892 4.9375 62.5 C4.15439453 61.62214844 4.15439453 61.62214844 3.35546875 60.7265625 C-1.5842901 55.02961434 -1.79791599 50.38853589 -1.8125 43.0625 C-1.86760742 41.62293945 -1.86760742 41.62293945 -1.92382812 40.15429688 C-1.96874737 32.8424413 -0.0260995 29.25332111 4.75 23.875 C6.93408352 19.80466252 7.37280062 16.46815456 6.75 11.875 C4.35414047 7.7030301 1.7572325 4.54648833 -2.25 1.875 C-10.40956235 0.7576077 -16.50207022 1.76436734 -22.1875 8 Z " fill="#E6E6E6" transform="translate(480.25,138.125)"/>
<path d="M0 0 C9.28951898 7.63804894 9.28951898 7.63804894 10.11328125 13.42578125 C10.14531177 19.43684301 9.53676548 24.51886665 5.125 29.04296875 C0.62647462 32.98855038 -1.91547395 34.46248751 -8 34.5 C-9.55654297 34.52126953 -9.55654297 34.52126953 -11.14453125 34.54296875 C-14.25107917 34.30768463 -16.35412371 33.54646622 -19.1875 32.3125 C-26.75715199 31.3662935 -33.58538667 33.58049599 -40.1875 37.3125 C-42.72920743 40.06850825 -44.37686121 43.05216675 -46.1875 46.3125 C-49.76398388 50.31475578 -52.5234045 52.95094418 -57.921875 53.68359375 C-64.97647169 53.83894109 -69.87861635 53.19453873 -75.1875 48.3125 C-78.75752118 43.59085908 -79.67648254 38.59149101 -79.58984375 32.7578125 C-78.70996071 27.41017382 -75.54797333 23.15337229 -71.32421875 19.859375 C-66.48193457 17.10344573 -61.67230796 16.43811033 -56.1875 17.3125 C-55.011875 17.828125 -53.83625 18.34375 -52.625 18.875 C-45.4528795 21.87425039 -38.10048919 18.77221975 -31.1796875 16.0390625 C-27.02487866 13.64164017 -25.47621039 10.82976813 -23.375 6.62109375 C-21.28215178 2.55243158 -18.44421784 0.87104126 -14.375 -0.9375 C-8.97618485 -2.20780945 -5.00006509 -2.64709328 0 0 Z M-20.1875 6.3125 C-21.7901279 8.82166489 -23.20040396 11.39850612 -24.6328125 14.0078125 C-27.11478276 17.68711514 -30.11636285 18.86071713 -34.1875 20.3125 C-34.85007812 20.60769531 -35.51265625 20.90289062 -36.1953125 21.20703125 C-41.50936268 23.48894691 -46.61619083 24.5052213 -52.22265625 22.6328125 C-53.56481718 22.0897416 -54.90598209 21.54420204 -56.24609375 20.99609375 C-59.39078842 19.88880689 -61.90222937 19.88663159 -65.1875 20.3125 C-70.12668408 22.92736216 -73.67484878 26.28719756 -76.1875 31.3125 C-76.85462053 35.38277966 -76.9224409 38.90246681 -74.98828125 42.61328125 C-72.43606754 46.12980745 -70.31929682 48.72214802 -66.1875 50.3125 C-60.56813096 51.09921167 -55.96498502 50.53452478 -51.1875 47.3125 C-48.83521811 44.75266383 -47.0822638 42.1427642 -45.25 39.1875 C-42.99332622 36.04183351 -41.65217282 34.96951743 -38.1875 33.3125 C-37.46433594 32.96058594 -36.74117187 32.60867187 -35.99609375 32.24609375 C-29.98158121 29.54473992 -24.76585928 28.4842893 -18.1875 29.3125 C-16.515267 29.96507873 -14.84822849 30.63117549 -13.1875 31.3125 C-7.52621282 31.95920134 -2.96406824 31.67780944 1.8125 28.3125 C5.01506548 25.03368297 6.65885671 22.38800302 7.3125 17.8125 C6.52185969 12.2780178 4.98290002 8.62563173 1.25 4.4375 C-5.72494008 -0.75476309 -14.20759591 0.33259591 -20.1875 6.3125 Z " fill="#EAEAEA" transform="translate(571.1875,199.6875)"/>
<path d="M0 0 C5.11671948 2.71614404 9.06250198 6.80859968 10.8984375 12.31640625 C10.8984375 14.62890625 10.8984375 16.94140625 10.8984375 19.25390625 C11.12529029 27.04758114 13.95811586 31.23562881 18.96484375 37.0234375 C20.8984375 39.31640625 20.8984375 39.31640625 20.8984375 41.31640625 C21.76726563 41.4865625 22.63609375 41.65671875 23.53125 41.83203125 C32.74688566 43.7699949 38.28247496 45.41245897 43.8984375 53.31640625 C46.28678133 58.09309391 45.41488446 64.7063069 43.8359375 69.62890625 C40.94845773 73.63412012 37.34601769 77.09261616 32.8984375 79.31640625 C26.69179558 79.84376798 21.11735418 80.07888107 15.8984375 76.31640625 C12.51591266 73.01365794 9.62783959 70.11329766 8.8984375 65.31640625 C8.8984375 63.14973958 8.8984375 60.98307292 8.8984375 58.81640625 C8.37440155 50.45803287 4.72777169 45.15514259 -1.1015625 39.31640625 C-4.32559003 37.05251231 -7.16345017 35.89931761 -10.9765625 35.00390625 C-16.00360054 33.57082526 -19.78169704 31.40964946 -23.1015625 27.31640625 C-25.68524334 22.07968402 -25.76738303 17.04575077 -25.1015625 11.31640625 C-23.4452188 6.43690723 -20.35813451 3.15412092 -16.1015625 0.31640625 C-11.01407555 -1.37942273 -5.14914876 -1.67490898 0 0 Z M-19.4140625 7.25390625 C-22.39691513 10.89961502 -22.46213986 14.54715182 -22.375 19.2265625 C-21.89796763 22.87245272 -20.48662355 25.54324355 -18.1015625 28.31640625 C-13.60129631 31.58130525 -9.55054992 32.90549427 -4.1171875 33.921875 C-2.1015625 34.31640625 -2.1015625 34.31640625 0.8984375 35.31640625 C1.2284375 36.30640625 1.5584375 37.29640625 1.8984375 38.31640625 C2.5584375 38.31640625 3.2184375 38.31640625 3.8984375 38.31640625 C4.23875 39.08984375 4.23875 39.08984375 4.5859375 39.87890625 C5.89574691 42.53711506 5.89574691 42.53711506 8.4609375 45.19140625 C11.8143824 49.70829122 11.45265504 54.55988372 11.671875 60 C12.05962113 65.67580109 13.63498002 68.89886859 17.4609375 73.19140625 C21.43562053 76.65651453 24.21754014 76.65346077 29.35546875 76.6015625 C34.00065522 76.08067369 36.71988816 73.65751412 39.7109375 70.25390625 C42.39997839 65.86652375 42.61975477 61.30759015 41.8984375 56.31640625 C40.07846094 52.05619207 37.75241502 49.78525665 33.7109375 47.56640625 C31.65354264 46.79878821 29.7022059 46.27865689 27.54296875 45.86328125 C18.10969141 43.81574818 14.02473551 37.00585326 8.8984375 29.31640625 C8.61255505 25.96542966 8.48418539 22.65693854 8.41992188 19.296875 C8.18226413 13.07140132 6.50482247 10.04033159 2.3359375 5.56640625 C-1.43198315 2.08832565 -3.82677053 2.03398517 -8.78515625 2.09765625 C-13.18534652 2.51318855 -16.09948308 4.4768262 -19.4140625 7.25390625 Z " fill="#EAEAEA" transform="translate(505.1015625,260.68359375)"/>
<path d="M0 0 C4.26822755 3.77192202 6.88157536 6.96473745 7.25 12.75 C6.9985161 17.88374031 5.07040367 21.56252127 1.6875 25.375 C-2.41160711 28.35616881 -6.17682847 28.91455462 -11.1328125 28.72265625 C-15.83712918 27.97232617 -18.45649932 25.54486759 -21.1875 21.8125 C-23.20597491 15.64493777 -23.44247802 9.80879882 -20.6875 3.875 C-14.88486554 -2.23303627 -7.55310878 -3.70529864 0 0 Z " fill="#171717" transform="translate(316.3125,429.625)"/>
<path d="M0 0 C5.8439755 2.51599728 9.51145008 7.08462369 12.80859375 12.421875 C12.80859375 13.081875 12.80859375 13.741875 12.80859375 14.421875 C13.56785156 14.62683594 14.32710938 14.83179688 15.109375 15.04296875 C16.10324219 15.31238281 17.09710938 15.58179688 18.12109375 15.859375 C19.10722656 16.12621094 20.09335937 16.39304688 21.109375 16.66796875 C23.02376901 17.20266925 24.9229299 17.79332038 26.80859375 18.421875 C31.61453587 18.79156286 34.4219416 18.13631698 38.7265625 16.10546875 C43.83208658 14.42917098 49.90128225 14.45623225 54.99609375 16.1484375 C59.88799735 18.74198984 62.77584478 22.25802001 65.12109375 27.171875 C66.23042494 32.41598608 65.75468301 37.16177289 63.68359375 42.109375 C59.96673595 46.69349962 55.87554643 50.8603628 49.828125 51.6953125 C43.57368796 51.9831273 39.47529427 50.65577668 34.80859375 46.421875 C33.59722906 44.77247219 32.41121137 43.10426466 31.24609375 41.421875 C26.29974432 34.85618498 19.7480312 32.81106607 11.80859375 31.421875 C7.89076999 31.72106897 5.384393 32.10894062 1.93359375 33.984375 C-3.52473033 36.49520408 -8.29449735 36.02256282 -13.94140625 34.234375 C-18.6822865 31.59042255 -22.15120521 28.49990841 -24.19140625 23.421875 C-24.84869236 17.93430026 -24.94749154 13.02128618 -22.56640625 7.984375 C-15.86808648 0.75724051 -10.01876805 -2.64309745 0 0 Z M-19.56640625 9.046875 C-21.77048518 13.62457739 -21.98857015 17.42739911 -21.19140625 22.421875 C-18.86217446 27.25951025 -16.0099285 30.05807163 -11.19140625 32.421875 C-6.27036506 33.31660976 -2.52962963 32.83959434 1.80859375 30.359375 C8.38205438 26.73041147 14.68252459 29.28037458 21.55859375 31.171875 C27.35263971 33.05157131 30.59589381 35.01251081 33.95703125 40.19140625 C36.98859323 44.77736785 39.32508934 46.78644386 44.80859375 48.421875 C49.81580692 49.2741666 52.91154501 47.73452309 56.97265625 44.97265625 C60.90755204 41.64892513 62.53316045 38.1050785 63.37109375 32.984375 C62.47644364 27.31825761 59.83076385 23.32509392 55.68359375 19.421875 C50.08280608 17.47377494 44.05273834 17.3446856 38.68359375 19.921875 C37.73484375 20.416875 36.78609375 20.911875 35.80859375 21.421875 C28.32728646 22.75837137 20.66210694 20.29821991 13.80859375 17.421875 C9.72177465 14.53570332 7.56794912 11.56090805 4.80859375 7.421875 C0.09256032 3.26727412 -2.68594178 2.0551227 -8.875 2.14453125 C-13.74467916 2.72757884 -16.40399239 5.55157547 -19.56640625 9.046875 Z " fill="#EAEAEA" transform="translate(391.19140625,204.578125)"/>
<path d="M0 0 C4.52828842 2.36425943 8.12220223 5.15436575 10 10 C10.72438038 14.55685796 10.48590609 18.73234679 8.375 22.875 C5.6507194 26.45957974 4.29433508 27.67266007 0 29 C-4.43940592 29.58883327 -8.86611964 30.06482743 -12.97265625 28.015625 C-16.63946549 25.09659258 -18.63966598 22.05358501 -19.44140625 17.484375 C-19.68586762 11.96427966 -19.35790124 8.66487825 -15.6875 4.375 C-11.20377525 -0.2309227 -6.22932255 -1.0750605 0 0 Z " fill="#1A1A1A" transform="translate(381,427)"/>
<path d="M0 0 C4.49084849 2.57685218 7.17722242 5.00370726 8.7421875 10.08984375 C9.18620664 14.20248008 9.2771987 17.79952261 7.6796875 21.65234375 C5.51874332 27.27079861 8.0489538 34.47565871 9.80078125 40.02734375 C10.60358859 42.30464383 10.60358859 42.30464383 13.0546875 43.46484375 C13.9415625 43.67109375 14.8284375 43.87734375 15.7421875 44.08984375 C21.00158878 46.92992044 22.9929068 49.35609033 24.7421875 55.08984375 C25.26870058 59.37716452 25.08351721 61.44510986 23.0546875 65.27734375 C20.08543242 68.88859993 16.68680118 72.72401598 11.82421875 73.328125 C6.18692965 73.51247697 2.06952284 72.89027557 -2.2578125 69.08984375 C-5.17004184 65.68649881 -6.48914304 62.4439504 -6.6328125 57.96484375 C-6.29214098 54.44457138 -5.57298824 52.29558462 -4.2578125 49.08984375 C-3.31825932 42.37874961 -5.56126656 36.62242244 -9.2578125 31.08984375 C-11.75015864 29.00049864 -14.23105209 27.33755361 -17.05078125 25.72265625 C-20.45757775 23.20222981 -21.03888563 20.51707853 -21.6640625 16.44140625 C-21.83649641 11.42645341 -21.80132183 7.99452544 -18.5078125 4.02734375 C-13.39351025 -1.25485226 -6.90609952 -2.78394669 0 0 Z M-16.2578125 6.08984375 C-19.09981124 10.35284186 -19.00038983 14.08721752 -18.2578125 19.08984375 C-15.70416716 23.31931885 -13.49161893 25.01274859 -9.1953125 27.27734375 C-4.65946262 29.952552 -3.38507256 33.23805775 -1.87109375 38.16015625 C-0.86507623 42.96597242 0.00643166 48.56135543 -2.2578125 53.08984375 C-2.77293867 57.1814173 -3.20148519 61.32573921 -1.2109375 65.046875 C0.55617372 67.18300062 2.25117091 68.84433546 4.7421875 70.08984375 C9.9625219 70.49140793 13.34148444 69.99030713 17.7421875 67.08984375 C20.95930462 63.44377769 21.28002047 59.9245147 21.078125 55.2265625 C20.53893317 51.79705168 19.31173461 50.40870334 16.7421875 48.08984375 C15.24348574 47.21262198 13.74335224 46.337844 12.2421875 45.46484375 C7.47371209 42.40893447 5.91739732 39.2565877 4.32421875 33.90234375 C3.23127296 28.62099496 3.02691611 24.15150835 4.8046875 19.02734375 C6.0457241 15.1387624 6.13482248 11.95739005 4.7421875 8.08984375 C1.88059992 4.70265845 -1.51045814 2.29302449 -5.9453125 1.77734375 C-10.3800332 2.19571363 -12.56331796 3.60316474 -16.2578125 6.08984375 Z " fill="#E5E5E5" transform="translate(380.2578125,243.91015625)"/>
<path d="M0 0 C4.77862512 1.40005332 7.40983223 3.17057503 10.3125 7.25 C11.27477815 9.1582465 11.97787982 10.91487083 12.515625 12.984375 C14.15151596 19.0138017 17.52283888 21.60923807 22.828125 24.74609375 C27.31801643 26.52103851 31.15129589 26.15208154 35.90234375 25.86328125 C40.93455147 26.08538373 44.48979164 28.49782415 48 32 C50.63700667 36.17526056 50.52621117 40.20563159 50 45 C48.5758133 49.11431714 46.49408554 52.37911044 43.00390625 55.08203125 C38.56751834 57.11429472 33.72603072 56.7001527 29 56 C24.43507321 53.83766626 22.12279169 51.54883934 20 47 C19.83757813 46.31550781 19.67515625 45.63101563 19.5078125 44.92578125 C17.99250472 38.81265603 15.46397881 35.70647458 10.16015625 32.29296875 C5.70518969 30.47023212 1.49231494 30.26260989 -3.28979492 30.34960938 C-8.38137652 30.38484088 -11.09568582 29.23549315 -15 26 C-18.06663547 22.26078651 -19.34704501 18.25669916 -19.125 13.4375 C-18.29895285 8.46400776 -15.68410781 5.30836547 -12 2 C-7.91480969 -0.72346021 -4.79371531 -0.61278885 0 0 Z M-13.64453125 7.8046875 C-16.02274802 11.65643916 -15.74964308 15.63281323 -15 20 C-13.10665263 23.61984803 -10.93513731 25.68828756 -7 27 C-4.64602485 27.05135946 -2.29179661 27.09146983 0.0625 27.125 C6.79377132 27.37147435 10.97376302 29.19926335 16.14453125 33.50390625 C17.86223864 35.20922946 17.86223864 35.20922946 20 35 C20.17015625 35.65226562 20.3403125 36.30453125 20.515625 36.9765625 C22.3734307 43.67652135 23.99375174 48.99583449 30 53 C35.5402769 53.45412106 39.29444733 53.28294372 44 50 C46.93766429 45.69142571 47.73747571 42.16232995 47 37 C44.84687389 33.26620591 42.06825435 30.49769364 38 29 C35.97680541 29.03607892 33.95434398 29.14830979 31.9375 29.3125 C25.24061761 29.46350073 21.56242982 27.53620588 16.2421875 23.62890625 C14.01179726 21.83629358 14.01179726 21.83629358 11 21 C10.19140625 18.671875 10.19140625 18.671875 9.5625 15.75 C8.23309855 10.4116223 6.74727333 6.92309133 2.125 3.6875 C-3.85941689 1.75136512 -9.37390969 3.11816217 -13.64453125 7.8046875 Z " fill="#E9E9E9" transform="translate(515,138)"/>
<path d="M0 0 C4.33885052 1.77019075 7.24463199 3.96136899 10 7.75 C11.69384907 13.25500948 11.99873964 17.82882686 9.5625 23.125 C7.24324878 25.72708673 5.28278598 27.19724924 2.4375 29.125 C-2.42250529 32.71996273 -3.52570857 36.24731003 -4.7578125 42.03515625 C-5.16378661 47.00506516 -4.22075598 50.62168027 -2 55 C-1.15387107 60.32274132 -1.67095603 64.96857026 -4.6796875 69.4921875 C-7.63961873 72.87246399 -10.81285352 74.63039511 -15.2421875 75.37890625 C-21.62009075 75.71175979 -25.01903318 73.56979898 -29.8125 69.4375 C-32.73699499 65.89732186 -32.50944841 61.23731954 -32.48046875 56.8671875 C-31.66710351 52.01344698 -28.82217046 48.94979887 -25 46 C-24.13375 45.71640625 -23.2675 45.4328125 -22.375 45.140625 C-19.75514873 44.19797356 -19.75514873 44.19797356 -18.85546875 41.42578125 C-16.43155005 31.38102169 -16.43155005 31.38102169 -18.5625 21.5625 C-20.31176168 17.22737323 -20.31866528 14.43468941 -19 10 C-14.87535755 2.05624417 -8.85226139 -1.71961159 0 0 Z M-14 7 C-16.6945775 11.04186625 -16.43974341 14.25584509 -16 19 C-15.67 19.804375 -15.34 20.60875 -15 21.4375 C-12.30640697 28.33983213 -13.89864206 35.75424577 -16.51953125 42.453125 C-18.65742219 46.13097433 -21.44691706 48.17233317 -24.9765625 50.46484375 C-27.23537922 52.17857921 -28.03337507 53.35688495 -29 56 C-29.46846274 60.84078166 -29.50094246 63.03389668 -27.25 67.375 C-24.57645416 70.49413681 -22.74912448 71.83547839 -18.6328125 72.22265625 C-13.87490505 71.91880235 -10.73384028 71.43377125 -7.375 67.875 C-4.71680209 64.17761991 -4.27923163 61.56486633 -5 57 C-5.69602007 54.97878917 -6.45573843 53.03442464 -7.34375 51.08984375 C-9.47756655 44.29465415 -7.10287662 37.11172668 -4 31 C-1.57391845 28.32348422 0.93499367 26.08888487 3.7578125 23.83984375 C7.09188591 21.10404483 7.94233721 19.50249002 8.4375 15.1875 C8.35497277 11.98662234 7.78700864 10.15212269 5.8125 7.625 C2.20971323 4.26239901 -0.10908031 3.241394 -4.9375 2.625 C-8.86684549 3.10614435 -10.92648237 4.55515643 -14 7 Z " fill="#EAEAEA" transform="translate(580,238)"/>
<path d="M0 0 C4.25967609 2.33807264 7.30627689 4.95941534 10 9 C10.70579636 14.15395484 10.78202168 19.32090629 8.3125 24 C5.39174993 27.78908118 2.92317097 29.6578082 -1.83203125 30.50390625 C-10.84269266 30.681049 -10.84269266 30.681049 -14.75 27 C-19.50689707 22.83025131 -25.07292722 22.97468473 -31.08984375 23.328125 C-36.13669154 24.19531563 -38.88782069 26.1556344 -42.765625 29.36328125 C-46.32270676 31.96890582 -49.66980294 32.41853206 -54 32 C-59.24827706 30.45132808 -61.9714948 28.54275781 -65 24 C-66.96390569 20.07218861 -66.335891 15.29194058 -66 11 C-64.2290203 6.37577522 -61.43118719 4.13646525 -57 2 C-51.56908234 1.19990945 -47.38072779 1.2603244 -42.5 3.875 C-41.2625 4.926875 -41.2625 4.926875 -40 6 C-36.24715915 8.5018939 -34.10193043 8.29930669 -29.625 8.3125 C-28.31789063 8.32925781 -27.01078125 8.34601563 -25.6640625 8.36328125 C-21.81376637 7.98153547 -20.0810408 7.24947962 -17 5 C-11.49237094 1.02599936 -6.96661303 -1.74468222 0 0 Z M-16.09375 9.10546875 C-20.15155852 11.75067995 -23.49808309 11.68413332 -28.25 11.625 C-29.10319824 11.62242187 -29.95639648 11.61984375 -30.83544922 11.6171875 C-36.8603408 11.4324103 -40.41188371 10.28074716 -45.0859375 6.3515625 C-47.99814376 4.29518828 -50.50796504 4.28612839 -53.98828125 4.53515625 C-58.45326374 5.56687065 -60.56221328 8.34331992 -63 12 C-63.63758476 18.37584758 -62.82553443 21.83035887 -59 27 C-55.40555114 29.17558747 -52.1470789 29.50780558 -48 29 C-44.90768968 27.23296553 -42.41599769 25.41599769 -39.8984375 22.8984375 C-35.8336549 20.23605968 -32.45341697 20.31596793 -27.6875 20.375 C-26.83172363 20.37757813 -25.97594727 20.38015625 -25.09423828 20.3828125 C-19.24993522 20.56232651 -15.94511107 21.47759401 -11.69140625 25.65234375 C-8.96545627 27.82429004 -6.41221349 27.64578295 -3.04296875 27.390625 C1.04633616 26.60873114 3.19788626 24.96806831 5.8125 21.8125 C7.38212437 18.09496859 7.88867785 14.91758819 7 11 C5.09408896 7.23871344 2.82059038 4.66203287 -1.19140625 3.203125 C-7.84510364 2.07728788 -11.40425813 4.38972972 -16.09375 9.10546875 Z " fill="#ECECEC" transform="translate(505,330)"/>
<path d="M0 0 C4.31361647 1.68793688 7.88375256 4.82846698 10 9 C10.82093955 13.71848431 10.3941678 17.77112393 8.9375 22.3125 C6.38922703 25.84720122 4.05273619 28.38296503 0 30 C-2.24643316 30.15159978 -4.49856671 30.22780624 -6.75 30.25 C-13.88704932 30.5245019 -17.70962015 32.66730084 -22.92578125 37.45703125 C-25.49063359 40.60151124 -26.23802834 42.95572331 -26.6953125 46.92578125 C-27.32912166 51.240559 -29.96092822 54.08317196 -33.125 56.875 C-38.55860186 59.00119203 -43.91585109 58.73331165 -49.375 56.8125 C-52.79097353 54.45385161 -55.19203897 52.01990258 -56.75 48.125 C-57.30215507 43.4316819 -57.60722902 40.16774812 -55.375 35.875 C-49.97358197 29.33644134 -49.97358197 29.33644134 -47 28 C-44.75465742 27.82170977 -42.5020709 27.72658149 -40.25 27.6875 C-32.46449191 27.43183183 -28.25727635 24.58314059 -23 19 C-20.76487224 16.04715525 -20.76487224 16.04715525 -20.1875 12.1875 C-17.72421931 1.57193322 -9.93679686 -0.920615 0 0 Z M-15 7 C-16.30606549 8.92472809 -16.91417293 10.58400143 -17.3828125 12.85546875 C-18.45179216 18.03516112 -19.78668576 20.51943606 -24 24 C-24.53238281 24.52851563 -25.06476563 25.05703125 -25.61328125 25.6015625 C-31.00649073 30.4750837 -35.63023631 30.40425015 -42.703125 30.6015625 C-46.92742752 31.11208247 -48.91742866 32.47641462 -51.86328125 35.4296875 C-54.48289465 39.04853488 -54.36408891 42.70375091 -54 47 C-51.87083984 51.03019601 -50.21362823 53.30220108 -46 55 C-41.32089977 55.80820822 -37.90148664 55.47625709 -33.6875 53.25 C-30.92421838 50.61436997 -30.21333409 47.80997664 -29.1875 44.1875 C-26.86329031 36.20049129 -21.69872177 32.46581452 -15 28 C-12.7532463 27.85322715 -10.50135607 27.77898742 -8.25 27.75 C-2.40649825 27.42972534 0.77217443 26.66681362 4.86328125 22.47265625 C7.38140584 19.21034363 7.38522685 16.33516237 7.359375 12.328125 C6.75455722 8.40995764 4.83123243 6.69641184 2 4 C-3.78111351 1.10944325 -10.76766653 2.23862485 -15 7 Z " fill="#EDEDED" transform="translate(438,140)"/>
<path d="M0 0 C3.2508878 -0.10796306 6.49819179 -0.18729295 9.75 -0.25 C10.67039063 -0.28351563 11.59078125 -0.31703125 12.5390625 -0.3515625 C19.35716458 -0.45037557 19.35716458 -0.45037557 22.5703125 1.80078125 C24.65745827 5.01133608 25.13438555 7.1700117 25 11 C22.37866334 13.96399505 20.6595331 15.70928797 16.72412109 16.39868164 C14.17331988 16.49135082 11.67423438 16.43727427 9.125 16.3125 C8.24585938 16.28994141 7.36671875 16.26738281 6.4609375 16.24414062 C4.30654993 16.18559748 2.1530469 16.09592783 0 16 C0 10.72 0 5.44 0 0 Z " fill="#131313" transform="translate(200,440)"/>
<path d="M0 0 C2.56314499 -0.08132187 5.12368418 -0.14064175 7.6875 -0.1875 C8.40873047 -0.21263672 9.12996094 -0.23777344 9.87304688 -0.26367188 C14.41213644 -0.32585118 17.53000807 -0.05224533 21 3 C21.59375 5.15625 21.59375 5.15625 21.5 7.5 C21.4896875 8.2734375 21.479375 9.046875 21.46875 9.84375 C20.88878932 12.51156912 20.11856678 13.31069115 18 15 C16.00708008 15.34057617 16.00708008 15.34057617 13.76953125 15.29296875 C12.96708984 15.28330078 12.16464844 15.27363281 11.33789062 15.26367188 C10.50451172 15.23853516 9.67113281 15.21339844 8.8125 15.1875 C7.96751953 15.17396484 7.12253906 15.16042969 6.25195312 15.14648438 C4.16769616 15.11115799 2.08376723 15.05735139 0 15 C0 10.05 0 5.1 0 0 Z " fill="#151515" transform="translate(200,411)"/>
<path d="M0 0 C3.91075925 1.98968453 5.57689098 3.36533646 8 7 C8 7.99 8 8.98 8 10 C-0.91 10 -9.82 10 -19 10 C-15.18201029 0.45502573 -9.87382673 -1.61384984 0 0 Z " fill="#242424" transform="translate(561,428)"/>
<path d="M0 0 C2.55375615 3.17494007 4.37447153 6.48103661 6.1875 10.125 C6.71730469 11.17945313 7.24710938 12.23390625 7.79296875 13.3203125 C9 16 9 16 9 18 C3.39 18 -2.22 18 -8 18 C-6.50748294 13.52244882 -4.99752948 9.77777506 -2.875 5.625 C-2.33617187 4.56539063 -1.79734375 3.50578125 -1.2421875 2.4140625 C-0.83226562 1.61742187 -0.42234375 0.82078125 0 0 Z " fill="#282828" transform="translate(700,427)"/>
<path d="M0 0 C0.99 0.103125 1.98 0.20625 3 0.3125 C5 3.3125 5 3.3125 4.625 6.5 C4.41875 7.428125 4.2125 8.35625 4 9.3125 C-1.44736842 10.64407895 -1.44736842 10.64407895 -3.875 9.1875 C-5.3568671 6.71772151 -5.3633156 5.14636167 -5 2.3125 C-3 0.3125 -3 0.3125 0 0 Z " fill="#5C5C5C" transform="translate(672,506.6875)"/>
<path d="M0 0 C1.98 0 3.96 0 6 0 C6 2.97 6 5.94 6 9 C4.02 9.33 2.04 9.66 0 10 C0 6.7 0 3.4 0 0 Z " fill="#737373" transform="translate(327,507)"/>
<path d="M0 0 C1.65 0 3.3 0 5 0 C5.70074844 3.153368 6 5.72724974 6 9 C4.02 9.33 2.04 9.66 0 10 C0 6.7 0 3.4 0 0 Z " fill="#7D7D7D" transform="translate(622,507)"/>
<path d="M0 0 C2.31 0 4.62 0 7 0 C7 0.33 7 0.66 7 1 C5.35 1 3.7 1 2 1 C2 1.99 2 2.98 2 4 C3.32 4.33 4.64 4.66 6 5 C4.68 5 3.36 5 2 5 C2 5.99 2 6.98 2 8 C3.65 8 5.3 8 7 8 C7 8.66 7 9.32 7 10 C4.69 10 2.38 10 0 10 C0 6.7 0 3.4 0 0 Z " fill="#8C8C8C" transform="translate(637,507)"/>
<path d="M0 0 C1.65 0 3.3 0 5 0 C5.93065133 2.60582371 6.14917407 3.64198224 5.0625 6.25 C4.5365625 7.11625 4.5365625 7.11625 4 8 C3.67 7.01 3.34 6.02 3 5 C2.34 5 1.68 5 1 5 C0.67 6.32 0.34 7.64 0 9 C0 6.03 0 3.06 0 0 Z " fill="#9C9C9C" transform="translate(686,507)"/>
<path d="M0 0 C1.98 0 3.96 0 6 0 C5.625 2.4375 5.625 2.4375 5 5 C4.01 5.495 4.01 5.495 3 6 C2.34 5.67 1.68 5.34 1 5 C1 6.65 1 8.3 1 10 C0.67 10 0.34 10 0 10 C0 6.7 0 3.4 0 0 Z " fill="#8F8F8F" transform="translate(596,507)"/>
<path d="M0 0 C1.65 0 3.3 0 5 0 C5.33 1.32 5.66 2.64 6 4 C5.01 4.66 4.02 5.32 3 6 C2.34 5.67 1.68 5.34 1 5 C0.67 6.32 0.34 7.64 0 9 C0 6.03 0 3.06 0 0 Z " fill="#8B8B8B" transform="translate(242,507)"/>
<path d="M0 0 C1.65 0 3.3 0 5 0 C5.33 0.99 5.66 1.98 6 3 C5.67 3.66 5.34 4.32 5 5 C3.68 5 2.36 5 1 5 C0.67 6.32 0.34 7.64 0 9 C0 6.03 0 3.06 0 0 Z " fill="#7E7E7E" transform="translate(274,507)"/>
</svg>
